<svg width="294" height="304" viewBox="0 0 294 304" fill="none" xmlns="http://www.w3.org/2000/svg">
<path d="M127.4 284.388C129.03 284.572 130.937 284.825 133.003 284.985C135.07 285.146 137.252 285.284 139.433 285.376H142.717C143.796 285.376 144.876 285.376 145.909 285.376C147.953 285.376 149.882 285.376 151.535 285.169C153.189 284.963 154.544 284.917 155.508 284.848C156.473 284.779 157.001 284.664 157.001 284.664H155.508L151.512 284.503L139.479 284.067L127.446 283.654L123.473 283.539H121.958L123.45 283.814C124.507 283.929 125.747 284.182 127.4 284.388Z" fill="#747474" fill-opacity="0.4"/>
<path d="M137.252 296.605L141.523 296.72C142.924 296.72 144.302 296.72 145.634 296.72C148.32 296.72 150.823 296.605 152.959 296.514C155.095 296.422 156.886 296.261 158.126 296.169L160.078 295.985H158.126L152.959 295.825L145.657 295.618L137.298 295.342L128.939 295.021L121.659 294.722L114.54 294.424L116.469 294.768C117.709 294.952 119.454 295.25 121.59 295.48C123.726 295.71 126.183 296.008 128.87 296.215C131.557 296.422 134.404 296.491 137.252 296.605Z" fill="#747474" fill-opacity="0.4"/>
<path d="M286.083 218.826C286.106 218.566 286.106 218.305 286.083 218.045C286.083 217.131 285.72 216.255 285.074 215.609C284.428 214.963 283.552 214.6 282.638 214.6L237.421 105.222V77.6649L239.488 77.2285C242.491 76.6095 245.195 74.9903 247.158 72.6357C247.77 71.7859 248.024 70.7298 247.865 69.6948C247.706 68.6598 247.147 67.7285 246.309 67.1013C243.964 65.5882 241.193 64.8715 238.409 65.0575H237.651C233.655 65.1723 187.13 71.3727 159.205 75.3455V71.6712C159.082 68.8851 158.295 66.1687 156.909 63.7486C157.435 63.0553 157.718 62.2077 157.713 61.3373C157.736 59.7051 157.146 58.1236 156.059 56.9052C156.496 53.0932 157.276 45.6069 157.276 40.4629C157.235 36.385 156.951 32.3131 156.427 28.2689C157.238 27.0633 157.699 25.6563 157.759 24.2042C157.804 23.626 157.718 23.045 157.506 22.5049C157.644 22.0901 157.713 21.6559 157.713 21.2189C157.767 19.8691 157.398 18.5363 156.656 17.4068C157.502 16.5202 158.164 15.4757 158.605 14.333C159.046 13.1903 159.258 11.9718 159.228 10.7472C159.205 4.31727 154.36 0 146.989 0C139.617 0 134.795 4.31727 134.795 10.7472C134.765 11.9718 134.977 13.1903 135.418 14.333C135.859 15.4757 136.521 16.5202 137.367 17.4068C136.571 18.5418 136.16 19.9021 136.195 21.2878C136.195 21.7248 136.264 22.159 136.402 22.5738C136.19 23.1138 136.104 23.6949 136.149 24.2731C136.209 25.7252 136.67 27.1322 137.481 28.3378C136.957 32.382 136.673 36.4539 136.632 40.5318C136.632 45.6758 137.412 53.1621 137.849 56.9741C136.762 58.1925 136.172 59.774 136.195 61.4062C136.194 62.2724 136.467 63.1167 136.976 63.8175C135.601 66.2421 134.814 68.9558 134.68 71.7401V79.0886C107.398 83.4748 57.9105 91.8567 54.0065 93.0049C51.0025 93.6206 48.2975 95.2403 46.3365 97.5978C45.7267 98.4504 45.472 99.5067 45.6263 100.544C45.7805 101.58 46.3316 102.517 47.1632 103.155C49.5198 104.661 52.2949 105.377 55.0859 105.199H55.3844V132.113L10.0531 241.491C9.1496 241.497 8.28518 241.861 7.64845 242.502C7.01172 243.143 6.65438 244.009 6.6544 244.913C6.6516 245.232 6.69808 245.55 6.79219 245.855C3.5772 246.337 0.5 247.554 0.5 251.09C0.5 255.683 2.79642 257.337 8.03225 261.241C14.6919 266.086 27.9881 268.13 53.9606 268.13C79.9331 268.13 93.1834 266.155 99.889 261.241C105.263 257.337 107.444 255.568 107.444 251.09C107.444 246.612 102.461 245.855 98.5341 245.579C98.5578 245.358 98.5578 245.134 98.5341 244.913C98.5357 244.046 98.2061 243.212 97.6128 242.58C97.0194 241.948 96.2072 241.567 95.3421 241.514L58.0712 132.159V104.9C68.5888 103.798 109.58 98.3097 134.795 94.7272V103.339C133.851 103.495 132.993 103.98 132.372 104.706C131.75 105.433 131.405 106.355 131.396 107.312V110.71C131.404 111.78 131.833 112.803 132.59 113.558L133.072 114.04V252.193C132.427 252.647 131.897 253.247 131.527 253.944C131.156 254.641 130.955 255.416 130.939 256.205C130.924 256.994 131.094 257.776 131.437 258.488C131.779 259.199 132.285 259.819 132.911 260.299C132.085 268.474 127.813 270.817 124.001 272.906C121.832 273.873 119.949 275.384 118.536 277.293C117.1 277.788 115.854 278.716 114.97 279.951C114.085 281.185 113.606 282.663 113.599 284.182C113.632 284.595 113.54 285.009 113.335 285.369C113.131 285.729 112.822 286.02 112.45 286.203C111.109 286.302 109.846 286.877 108.891 287.824C107.935 288.771 107.349 290.029 107.238 291.37C107.013 292.89 106.92 294.426 106.962 295.962C106.962 303.196 117.457 303.196 122.509 303.196H171.606C176.658 303.196 187.153 303.196 187.153 295.962C187.194 294.426 187.102 292.89 186.877 291.37C186.762 290.03 186.174 288.776 185.219 287.829C184.264 286.883 183.005 286.306 181.664 286.203C181.292 286.02 180.984 285.729 180.779 285.369C180.575 285.009 180.483 284.595 180.516 284.182C180.509 282.663 180.03 281.185 179.145 279.951C178.261 278.716 177.014 277.788 175.579 277.293C174.166 275.384 172.283 273.873 170.113 272.906C166.301 270.817 162.007 268.474 161.203 260.299C161.83 259.819 162.336 259.199 162.678 258.488C163.021 257.776 163.191 256.994 163.176 256.205C163.16 255.416 162.959 254.641 162.588 253.944C162.218 253.247 161.688 252.647 161.043 252.193V114.04L161.525 113.558C162.276 112.8 162.697 111.777 162.696 110.71V107.312C162.689 106.341 162.332 105.405 161.691 104.675C161.05 103.946 160.168 103.471 159.205 103.339V91.03C182.468 87.2639 220.956 80.7421 234.735 78.0782V105.176L197.487 214.623C196.604 214.688 195.78 215.093 195.189 215.752C194.598 216.412 194.286 217.275 194.318 218.16C194.284 218.411 194.284 218.666 194.318 218.918C190.62 219.262 186.556 220.249 186.556 224.337C186.556 228.93 188.852 230.583 194.111 234.487C200.771 239.31 214.067 241.377 240.039 241.377C266.012 241.377 279.262 239.402 285.968 234.487C291.318 230.583 293.5 228.815 293.5 224.337C293.5 220.249 289.665 219.216 286.083 218.826ZM110.889 295.939C110.853 294.674 110.914 293.407 111.073 292.15C128.872 294.544 146.866 295.152 164.786 293.964C165.248 295.645 165.404 297.396 165.245 299.131H122.394C116.768 299.131 110.889 298.534 110.889 295.939ZM135.323 110.71V107.312H152.592V110.228H152.178L145.588 110.435L135.989 110.733L145.588 111.124L152.178 111.353L151.535 112.364H136.999L135.323 110.71ZM55.0629 96.9318C58.6683 95.9444 106.962 87.7461 134.795 83.1533V87.2639L129.788 88.0217L113.3 90.5937L105.814 91.8567L98.7408 92.7983L85.123 94.5895L64.7997 97.3222C62.3196 97.6437 60.3906 97.9652 59.0587 98.1259L57.0378 98.4245H59.0816C60.4136 98.4245 62.3885 98.4245 64.8686 98.4245H69.0022L63.6056 99.4808L57.8416 100.629L55.614 101.042H54.994C53.0911 101.197 51.1858 100.773 49.5285 99.8253C51.0113 98.2786 52.9511 97.2483 55.0629 96.8859V96.9318ZM138.813 71.7401C138.933 69.5159 139.579 67.3517 140.696 65.425C142.602 65.7465 145.151 65.9531 147.586 66.1139C147.575 66.2208 147.575 66.3285 147.586 66.4354C147.773 67.8204 147.857 69.2174 147.838 70.6149C147.838 71.4875 147.838 72.429 147.654 73.4395C147.471 74.4499 147.654 75.5062 147.471 76.6085C147.471 78.9049 147.333 81.2013 147.31 83.4978C147.31 84.6689 147.31 85.7942 147.31 87.0113C147.31 88.2284 147.31 89.3077 147.31 90.387C147.31 92.6834 147.494 94.6354 147.609 96.3807C147.861 99.8942 148.229 102.237 148.229 102.237C148.229 102.237 148.573 99.9401 148.826 96.3807C148.826 94.6354 149.078 92.5916 149.124 90.387C149.124 89.2847 149.124 88.1595 149.124 87.0113C149.124 85.8401 149.124 84.7149 149.124 83.4978C149.124 78.9049 148.872 74.1513 148.55 70.6149C148.411 69.1793 148.118 67.7627 147.677 66.3895V66.1598H149.652C150.207 67.7091 150.509 69.3372 150.548 70.9823V104.395H138.813V71.7401ZM138.813 8.49675C138.934 7.92818 139.152 7.38451 139.456 6.88925C140.13 5.67704 141.189 4.72368 142.465 4.17948C143.191 3.83501 143.965 3.60272 144.761 3.49056C145.518 3.34839 146.287 3.27156 147.057 3.26091C148.636 3.23598 150.202 3.54918 151.65 4.17948C152.884 4.74319 153.9 5.69474 154.544 6.88925C154.807 7.36202 154.993 7.87364 155.095 8.40489C155.18 8.80521 155.226 9.2128 155.233 9.62199C155.262 9.87375 155.262 10.1281 155.233 10.3798V10.6554V10.4028C155.208 10.1468 155.162 9.89326 155.095 9.64496C155.014 9.27237 154.891 8.91025 154.727 8.56564C154.543 8.11677 154.304 7.69251 154.016 7.30261C153.291 6.36332 152.31 5.65356 151.191 5.2588C150.588 5.03905 149.965 4.87757 149.331 4.77655C152.247 7.07297 153.694 13.2733 148.688 16.0749H141.523C140.559 14.5134 138.813 13.7785 138.813 10.6554V10.4717C138.787 10.2197 138.787 9.96579 138.813 9.71385C138.806 9.30618 138.837 8.89872 138.905 8.49675H138.813ZM238.409 69.1452C240.309 68.9973 242.21 69.4126 243.874 70.3393C242.412 71.8804 240.498 72.9176 238.409 73.3017L236.342 73.5543L230.509 74.1743L225.044 74.7714L228.994 73.4854C231.29 72.7505 233.242 72.1305 234.505 71.7171L236.434 71.0741L234.413 71.3956C233.104 71.6253 231.175 71.9009 228.718 72.3372C223.804 73.1409 216.8 74.3351 208.418 75.8048C204.215 76.5166 199.668 77.2745 194.869 78.1012L187.98 79.2953C185.499 79.6168 182.973 79.9843 180.401 80.3517C175.051 81.1325 169.516 81.9132 163.913 82.7859L159.32 83.4978V79.3642C187.428 75.3684 234.229 69.1451 237.904 69.0303L238.409 69.1452ZM148.849 19.1062L147.7 22.0686L145.404 22.2982L141.936 22.6427L145.404 23.0101L147.7 23.2398L149.262 26.5925H141.799C140.329 26.5925 140.168 24.0205 140.168 24.0205L141.569 22.6197L140.214 21.2878C140.156 20.833 140.251 20.3719 140.484 19.977C140.717 19.582 141.074 19.2757 141.5 19.1062H148.849ZM154.36 33.8033C154.885 36.8355 155.1 39.9132 155.003 42.9889C154.877 46.0302 154.555 49.0601 154.039 52.0598C153.832 53.2999 153.602 54.3562 153.464 55.0222C153.327 55.6881 153.189 56.1245 153.189 56.1245V54.9763C153.189 54.2644 153.189 53.231 153.189 51.9909C153.189 50.7508 153.189 49.3041 153.373 47.7655C153.556 46.2269 153.533 44.5735 153.579 42.943C153.717 39.6821 153.579 36.4212 153.579 33.9411C153.579 32.9077 153.579 32.035 153.579 31.3461H153.924C153.901 31.9661 154.084 32.7929 154.36 33.8033ZM140.329 61.3603C140.312 60.788 140.493 60.2274 140.84 59.7719C141.186 59.3164 141.679 58.9935 142.235 58.8572H148.343C148.842 59.6504 149.264 60.4884 149.606 61.3603H140.421H140.329ZM152.064 19.0373C151.993 18.9837 151.937 18.9125 151.903 18.8306C151.886 18.7946 151.878 18.7554 151.878 18.7158C151.878 18.6762 151.886 18.637 151.903 18.601C152.041 18.8766 152.385 18.8077 152.684 18.8995C153.027 18.9712 153.349 19.1205 153.625 19.3358C153.91 19.5814 154.124 19.8985 154.245 20.2544C154.387 20.5811 154.465 20.9319 154.475 21.2878V21.4715L154.268 21.7012C153.993 22.0226 153.694 22.3212 153.418 22.6197L154.314 23.6072L154.498 23.8368V24.0665C154.467 24.375 154.39 24.677 154.268 24.9621C154.171 25.2521 154.04 25.5295 153.878 25.7888C153.711 26.0664 153.484 26.3021 153.212 26.4777C153.067 26.5514 152.912 26.6055 152.753 26.6385C152.6 26.6621 152.445 26.6621 152.293 26.6385C152.549 26.567 152.77 26.4034 152.913 26.1792C153.042 25.9744 153.135 25.7492 153.189 25.5132C153.202 25.2684 153.202 25.0231 153.189 24.7784C153.2 24.6255 153.2 24.472 153.189 24.3191L152.064 23.102L151.581 22.6197L152.064 22.1604L153.281 21.0122C153.325 20.6223 153.244 20.2285 153.051 19.887C152.916 19.6602 152.727 19.4708 152.5 19.3358L152.064 19.0373ZM148.481 31.0705C149.13 34.6925 149.43 38.3682 149.377 42.0474C149.395 46.8953 148.887 51.7308 147.861 56.4689H141.89C141.408 52.8176 140.582 45.4232 140.582 40.5318C140.608 37.1551 140.815 33.7822 141.202 30.4275C143.337 30.7031 145.955 30.9098 148.435 31.0705H148.481ZM150.778 117.393V251.228H149.239C149.4 244.477 149.515 236.876 149.583 228.792C149.583 224.199 149.583 219.216 149.583 214.279V199.283C149.583 194.277 149.583 189.248 149.583 184.311C149.583 179.373 149.583 174.482 149.583 169.774C149.583 160.359 149.354 151.587 149.17 144.054C148.986 136.522 148.78 130.276 148.665 125.844L148.412 118.954L148.137 125.844C148.137 130.23 147.792 136.522 147.632 144.054C147.471 151.587 147.31 160.359 147.218 169.774C147.218 174.367 147.218 179.35 147.218 184.311C147.218 189.271 147.218 194.277 147.218 199.283C147.218 204.289 147.218 209.341 147.218 214.279C147.218 219.216 147.218 224.084 147.218 228.792C147.218 236.876 147.425 244.477 147.563 251.228H136.999V116.405C140.329 116.911 145.978 117.117 150.801 117.393H150.778ZM157.116 123.134C157.116 127.727 157.253 134.272 157.368 142.148C157.483 150.025 157.483 159.188 157.575 169.016C157.667 178.845 157.575 189.34 157.575 199.834C157.575 210.329 157.575 220.824 157.575 230.652C157.575 237.978 157.575 244.913 157.414 251.32H156.656C156.656 245.005 156.656 238.07 156.496 230.652C156.496 220.824 156.496 210.329 156.496 199.834C156.496 189.34 156.496 178.868 156.496 169.016C156.496 159.165 156.656 150.002 156.656 142.148C156.656 134.295 156.84 127.704 156.909 123.134C156.909 120.677 156.909 118.794 156.909 117.577C157.07 118.794 157.093 120.677 157.139 123.134H157.116ZM156.794 97.3911C156.794 99.2742 156.611 100.859 156.542 101.984C156.473 103.109 156.542 103.729 156.542 103.729C156.542 103.729 156.542 103.109 156.404 101.984C156.266 100.859 156.22 99.2971 156.174 97.3911C156.128 95.4851 155.99 93.2575 155.945 90.8922C155.899 88.5269 155.945 85.9779 155.945 83.4518C155.945 80.9258 155.945 78.3997 155.945 76.0114C155.945 74.8403 155.945 73.715 155.945 72.5898C156.026 71.5963 156.026 70.5979 155.945 69.6044C155.799 68.508 155.489 67.4397 155.026 66.4354H155.531C156.093 67.3662 156.475 68.3945 156.656 69.4667C156.834 70.498 156.919 71.5433 156.909 72.5898C156.909 73.6921 156.909 74.8862 156.909 76.0114C156.909 78.3079 156.909 80.9258 156.909 83.4518C156.909 85.9779 156.909 88.5269 156.909 90.8922C156.909 93.2575 156.886 95.4851 156.817 97.3911H156.794ZM134.106 254.213C134.494 253.85 134.982 253.611 135.506 253.525C136.104 253.525 136.494 253.525 137.022 253.525C138.032 253.525 139.066 253.525 140.168 253.525C142.465 253.525 144.761 253.525 147.057 253.525C149.354 253.525 151.65 253.525 153.947 253.525C155.026 253.525 156.082 253.525 157.093 253.525C157.598 253.525 158.034 253.525 158.585 253.525C159.118 253.606 159.614 253.846 160.009 254.213C160.302 254.473 160.533 254.796 160.683 255.158C160.834 255.519 160.9 255.91 160.878 256.301C160.856 256.692 160.746 257.073 160.556 257.416C160.365 257.758 160.1 258.053 159.78 258.278C159.441 258.517 159.044 258.66 158.631 258.691H158.218C158.742 258.651 159.237 258.432 159.619 258.071C160.041 257.695 160.297 257.167 160.331 256.602C160.352 256.257 160.289 255.913 160.15 255.597C160.01 255.281 159.796 255.004 159.527 254.788C159.231 254.551 158.871 254.408 158.494 254.374C158.126 254.374 157.575 254.374 157.093 254.374H153.947H151.926C152.09 254.941 152.168 255.529 152.155 256.12C152.177 256.91 152.02 257.695 151.696 258.416H135.621C135.216 258.38 134.828 258.238 134.496 258.003C133.948 257.615 133.57 257.031 133.44 256.372C133.381 255.985 133.41 255.59 133.525 255.217C133.641 254.843 133.839 254.5 134.106 254.213ZM159.366 267.992C160.545 270.464 162.33 272.597 164.556 274.192C166.031 275.215 167.564 276.151 169.149 276.994C169.702 277.303 170.238 277.64 170.756 278.004C170.756 278.004 170.205 277.637 169.126 277.063C167.544 276.265 166.011 275.376 164.533 274.399C162.198 272.842 160.307 270.706 159.045 268.199C158.313 266.743 157.773 265.2 157.437 263.606H158.08C158.332 265.072 158.748 266.504 159.32 267.877L159.366 267.992ZM175.717 281.656C176.219 282.014 176.609 282.508 176.842 283.079L177.003 283.585V284.021V284.917C177.174 286.057 177.668 287.125 178.426 287.994C178.815 288.43 179.264 288.809 179.758 289.119C180.217 289.396 180.723 289.583 181.251 289.67C181.682 289.668 182.098 289.823 182.422 290.107C182.687 290.369 182.884 290.692 182.996 291.048C183.169 291.598 183.261 292.171 183.272 292.747C183.269 293.515 183.223 294.282 183.134 295.044C183.134 295.618 182.996 295.939 182.996 295.939C182.996 295.939 182.996 295.618 182.859 295.044C182.777 294.272 182.654 293.506 182.491 292.747C182.41 292.266 182.271 291.795 182.078 291.347C181.998 291.157 181.872 290.992 181.71 290.864C181.527 290.75 181.527 290.864 181.182 290.75C180.456 290.717 179.747 290.512 179.115 290.152C178.489 289.792 177.923 289.334 177.439 288.798C176.959 288.252 176.571 287.631 176.291 286.96C176.03 286.324 175.874 285.649 175.832 284.963C175.832 284.641 175.832 284.342 175.832 284.044V283.608V283.286C175.698 282.853 175.462 282.459 175.143 282.138C174.605 281.619 173.963 281.22 173.26 280.967C172.974 280.853 172.683 280.753 172.387 280.668C172.693 280.643 173 280.643 173.305 280.668C174.155 280.754 174.969 281.054 175.671 281.541L175.717 281.656ZM136.678 262.297C139.341 262.733 143.705 263.032 147.93 263.238V264.938C148.3 269.311 149.411 273.59 151.214 277.591C151.719 278.67 152.018 279.221 152.018 279.221C152.018 279.221 151.765 278.647 151.352 277.545C150.782 275.952 150.306 274.326 149.928 272.677C149.308 270.135 148.977 267.531 148.94 264.915C148.94 264.387 148.94 263.835 148.94 263.284H150.801C151.216 268.936 152.879 274.426 155.669 279.359H161.915H167.197H169.218L167.22 279.658C165.957 279.796 164.143 280.048 161.961 280.232C159.78 280.416 157.208 280.622 154.475 280.737C151.742 280.852 148.803 280.921 145.886 280.921C142.97 280.921 140.03 280.921 137.298 280.691C134.565 280.462 131.993 280.37 129.811 280.14C128.089 279.979 126.596 279.796 125.425 279.635C124.254 279.474 123.129 279.359 122.049 279.221C124.507 275.731 134.611 275.111 136.632 262.182L136.678 262.297ZM120.442 281.013C133.293 282.669 146.27 283.122 159.205 282.368C160.609 283.729 161.432 285.58 161.502 287.535C161.516 288.821 161.89 290.078 162.581 291.163C164.189 291.163 165.704 291.163 167.174 290.956L176.75 290.451L174.132 290.864C172.479 291.094 170.09 291.438 167.243 291.714C164.395 291.99 161.043 292.311 157.437 292.495C153.832 292.678 149.997 292.747 146.162 292.77C142.327 292.793 138.469 292.587 134.863 292.403C131.258 292.219 127.974 291.852 125.058 291.553C122.141 291.255 119.822 290.864 118.168 290.635L115.321 290.084H115.459L113.736 289.877C114.892 289.417 115.882 288.619 116.575 287.586C117.267 286.552 117.631 285.334 117.617 284.09C117.659 283.325 117.955 282.595 118.459 282.017C118.962 281.439 119.644 281.045 120.396 280.898L120.442 281.013ZM92.9768 244.913C92.9857 244.534 93.0882 244.163 93.2753 243.834L93.8035 245.349H92.9997C92.9782 245.205 92.9705 245.059 92.9768 244.913ZM4.5417 251.09C4.5417 249.414 12.1888 249.23 32.0987 249.23H47.3929C46.8582 249.875 46.5729 250.69 46.5891 251.527C46.5913 251.565 46.5913 251.603 46.5891 251.642H44.1319C40.871 251.642 37.656 251.642 34.5329 251.642H17.5394C12.5562 251.642 8.35375 251.641 5.52916 251.343H4.65652L4.5417 251.09ZM12.1888 244.913C12.2111 245.088 12.2111 245.266 12.1888 245.441H11.3391L11.9362 243.949C12.0996 244.244 12.1864 244.575 12.1888 244.913ZM47.8751 251.435C47.876 251.108 47.9533 250.787 48.1009 250.496C48.2484 250.205 48.4621 249.952 48.7248 249.758V251.343C48.7248 251.343 48.7248 251.481 48.7248 251.55H47.944L47.8751 251.435ZM52.0546 251.55H51.2968V249.942C51.508 250.139 51.6762 250.377 51.7908 250.642C51.9054 250.907 51.964 251.192 51.9627 251.481C51.9627 251.481 52.0546 251.504 52.0546 251.55ZM5.29951 252.147C9.24936 253.033 13.2541 253.655 17.2868 254.007C19.7899 254.282 22.4997 254.512 25.3472 254.696C28.1948 254.879 31.2261 255.109 34.3492 255.224C37.4723 255.339 40.6873 255.522 43.9712 255.545L53.9147 255.706L63.8582 255.545C67.1421 255.545 70.38 255.339 73.4802 255.224C76.5803 255.109 79.6346 254.902 82.4821 254.696C85.3297 254.489 88.0624 254.259 90.5426 254.007C92.5175 253.8 94.3776 253.57 96.054 253.341C88.7724 257.973 80.5215 260.864 71.9416 261.792H70.1274H62.1588C59.472 261.792 56.6934 261.792 53.9147 261.792C51.136 261.792 48.3803 261.792 45.6705 261.792H37.702C35.13 261.792 32.6269 261.792 30.2616 261.562C27.8963 261.332 25.6687 261.309 23.6479 261.103C21.627 260.896 19.744 260.643 18.0906 260.368C16.6818 260.158 15.2863 259.866 13.9111 259.495C13.0207 259.228 12.153 258.89 11.3161 258.485L10.4205 258.026C5.66694 254.581 4.74837 253.593 4.56466 252.009L5.29951 252.147ZM103.311 251.251H102.415C99.5445 251.481 95.388 251.504 90.4277 251.527H73.4113C70.3111 251.527 67.0961 251.527 63.8122 251.527H53.3176V251.412C53.3226 250.611 53.037 249.836 52.5139 249.23H75.8225C95.6406 249.23 103.38 249.414 103.38 251.09L103.311 251.251ZM41.1466 245.212H31.9609C23.7627 245.212 17.7691 245.212 13.4059 245.395C13.4183 245.242 13.4183 245.089 13.4059 244.936C13.4027 244.034 13.0485 243.17 12.4184 242.525L54.9481 140.196L48.9774 245.212H41.1466ZM7.98632 244.913C7.98712 244.47 8.13042 244.038 8.39506 243.683C8.6597 243.327 9.03166 243.066 9.45603 242.938L8.836 244.408C8.76177 244.607 8.73556 244.821 8.7595 245.033C8.78344 245.244 8.85685 245.447 8.97378 245.625H8.14707C8.04642 245.401 7.99176 245.159 7.98632 244.913ZM97.1562 244.913C97.191 245.111 97.191 245.313 97.1562 245.51H96.3755C96.503 245.201 96.503 244.854 96.3755 244.546L95.8702 243.007C96.2441 243.169 96.5638 243.434 96.7916 243.772C97.0195 244.11 97.146 244.506 97.1562 244.913ZM92.7701 242.364C92.4134 242.687 92.1272 243.08 91.9296 243.519C91.732 243.957 91.6273 244.432 91.6219 244.913C91.6093 245.043 91.6093 245.174 91.6219 245.303C87.5802 245.303 82.4362 245.303 75.7766 245.303H51.6642L57.6808 139.439L92.7701 242.364ZM190.689 224.222C190.689 222.546 198.359 222.339 218.246 222.339H240.269C239.734 222.984 239.449 223.799 239.465 224.636C239.465 224.636 239.465 224.636 239.465 224.773H230.28C226.996 224.773 223.781 224.773 220.681 224.773H203.664C198.704 224.773 194.478 224.773 191.677 224.475H190.781L190.689 224.222ZM289.435 224.36H288.54C285.669 224.59 281.65 224.636 276.552 224.659H259.559C256.436 224.659 253.221 224.659 249.96 224.659H246.217C246.246 223.819 245.959 223 245.413 222.362H261.901C281.719 222.362 289.458 222.569 289.458 224.245L289.435 224.36ZM240.728 224.544C240.73 224.261 240.788 223.982 240.898 223.722C241.008 223.461 241.169 223.226 241.371 223.028V224.636H240.636L240.728 224.544ZM244.908 224.544H244.127C244.127 224.544 244.127 224.544 244.127 224.36V222.73C244.396 222.924 244.615 223.18 244.766 223.475C244.918 223.77 244.998 224.097 245 224.429C244.986 224.508 244.963 224.585 244.931 224.659L244.908 224.544ZM281.444 218.412H280.663C280.651 218.259 280.651 218.106 280.663 217.953C280.666 217.626 280.744 217.303 280.893 217.012L281.444 218.412ZM279.308 218.412C275.06 218.412 269.434 218.275 261.947 218.275H243.92L237.95 113.259L280.365 215.588C279.758 216.201 279.405 217.022 279.377 217.884C279.34 218.073 279.324 218.266 279.331 218.458L279.308 218.412ZM235.125 112.524L241.119 218.412H218.155C210.875 218.412 205.341 218.412 201.138 218.55C201.149 218.413 201.149 218.274 201.138 218.137C201.136 217.65 201.03 217.168 200.828 216.725C200.626 216.282 200.333 215.886 199.967 215.565L235.125 112.524ZM199.002 218.481L199.531 216.943C199.743 217.271 199.855 217.654 199.852 218.045C199.863 218.198 199.863 218.351 199.852 218.504H199.025L199.002 218.481ZM191.447 225.37C195.408 226.234 199.419 226.848 203.457 227.208C205.938 227.483 208.647 227.736 211.518 227.92C214.388 228.103 217.374 228.31 220.497 228.425C223.62 228.54 226.858 228.723 230.119 228.769L240.062 228.93L250.029 228.769C253.29 228.769 256.528 228.54 259.651 228.425C262.774 228.31 265.782 228.103 268.653 227.92C271.523 227.736 274.21 227.483 276.713 227.208C278.688 227.001 280.525 226.794 282.202 226.542C274.938 231.223 266.681 234.14 258.089 235.061H256.298H248.329C245.62 235.061 242.841 235.061 240.062 235.061C237.284 235.061 234.551 235.061 231.841 235.061H223.85L216.432 234.832C214.136 234.671 211.839 234.556 209.796 234.349C207.752 234.143 205.892 233.89 204.238 233.615C202.825 233.357 201.429 233.012 200.059 232.581C199.17 232.309 198.302 231.972 197.464 231.571L196.568 231.134C191.838 227.667 190.896 226.679 190.735 225.095L191.447 225.37ZM284.842 218.16C284.843 218.389 284.796 218.616 284.705 218.826H283.878C283.964 218.646 284.008 218.45 284.008 218.252C284.008 218.053 283.964 217.857 283.878 217.677L283.281 216.208C283.715 216.325 284.101 216.577 284.381 216.928C284.662 217.279 284.824 217.711 284.842 218.16ZM195.696 218.16C195.698 217.739 195.826 217.328 196.063 216.98C196.3 216.632 196.636 216.363 197.027 216.208L196.499 217.723C196.363 218.054 196.363 218.426 196.499 218.757H195.719C195.681 218.56 195.673 218.359 195.696 218.16Z" fill="#747474" fill-opacity="0.4"/>
<path d="M207.821 230.469C210.852 230.813 214.411 231.249 218.224 231.502C220.13 231.64 222.104 231.732 224.102 231.823C226.1 231.915 228.144 231.984 230.188 232.076H236.273H242.175C244.081 232.076 245.918 231.938 247.664 231.846C249.409 231.755 251.085 231.64 252.601 231.548C255.655 231.364 258.181 231.043 259.949 230.859L262.751 230.56L252.578 230.79C251.039 230.79 249.386 230.79 247.641 230.79H242.152H236.273H230.211C228.19 230.79 226.146 230.79 224.148 230.652C222.15 230.514 220.198 230.514 218.292 230.4C214.48 230.216 210.921 230.032 207.89 229.78C204.858 229.527 202.309 229.366 200.541 229.183L197.762 228.907C197.762 228.907 198.75 229.137 200.495 229.435C202.24 229.734 204.881 230.101 207.821 230.469Z" fill="#747474" fill-opacity="0.4"/>
<path d="M22.1782 257.36C25.2095 257.704 28.7689 258.14 32.581 258.37C34.487 258.508 36.4619 258.6 38.4598 258.714C40.4577 258.829 42.5015 258.875 44.5453 258.944H50.6308H56.5326C58.4386 258.944 60.2758 258.783 62.044 258.714C63.8122 258.646 65.4427 258.485 66.9583 258.393C70.0126 258.232 72.5386 257.888 74.3298 257.727L77.1085 257.406L66.9354 257.635C65.3968 257.635 63.7434 257.635 61.9981 257.635H56.5096H50.6308H44.5683C42.5474 257.635 40.5036 257.635 38.5057 257.474C36.5078 257.314 34.5559 257.337 32.6499 257.222C28.8378 257.038 25.3013 256.854 22.2471 256.625C19.1928 256.395 16.6668 256.211 14.8985 256.028L12.1199 255.729C12.1199 255.729 13.1073 255.959 14.8756 256.28C16.6438 256.602 19.1469 256.992 22.1782 257.36Z" fill="#747474" fill-opacity="0.4"/>
</svg>
