<svg width="102" height="118" viewBox="0 0 102 118" fill="none" xmlns="http://www.w3.org/2000/svg">
<path d="M200.726 -42.4481L181.135 -47.9287L181 -47.8351L188.831 -42.4633L176.503 -45.2067C170.694 -41.4987 164.686 -36.6875 156.857 -31.2414L167.765 -25.5135L154.097 -29.3221C147.178 -24.6496 139.972 -20.4158 132.522 -16.6453L141.207 -10.6688L129.233 -15.0566C128.964 -14.8694 128.695 -14.6821 128.426 -14.4949L130.368 -12.5167L125.063 -12.8213C116.707 -8.3652 108.905 -2.93886 101.821 3.34522L120.184 14.2401L99.1471 5.77082C96.4442 8.25007 93.7793 10.7361 90.6327 13.3909L97.5927 18.037L88.0946 15.3893C84.7793 18.0606 81.3293 20.5603 77.7583 22.8787L86.3363 29.9944L74.2614 25.0779C63.6902 32.102 53.9852 40.3498 45.3482 49.6499L53.1714 55.3933L43.4013 51.6366C39.9493 55.336 36.665 59.0852 33.6451 62.7836L40.5445 68.9698L30.5842 66.7103C26.3644 72.028 22.4448 77.5772 18.8437 83.3319C21.9746 84.483 24.3594 85.0879 24.3594 85.0879C24.3594 85.0879 21.5698 85.0975 17.9327 84.7979C16.9494 86.4472 16.1076 87.9648 15.414 89.3127C7.67466 104.316 1.47294 110.428 0.772428 114.111C0.0719193 117.794 12.0282 114.404 21.8578 116.954C27.71 118.476 32.2241 115.203 40.6828 110.518L52.2327 81.1791L45.7666 107.681C51.75 104.593 57.9799 102.007 64.3917 99.9517C66.8096 99.1686 68.9321 98.3913 70.8643 97.5799C71.239 95.8214 71.6409 93.9106 71.9375 92.0399C73.3122 84.4925 74.2217 76.8028 74.2217 76.8028C74.2217 76.8028 74.866 84.477 74.9817 92.2527L74.9717 95.5884C79.5437 93.2548 83.7243 90.2233 87.3633 86.603L90.6638 71.3913L90.1764 83.9472C91.6268 82.5389 93.129 81.0613 94.8038 79.4968L96.9442 70.4182L96.6512 77.8456C102.629 72.7024 109.159 68.2384 116.121 64.5358C117.337 63.8902 118.521 63.1997 119.503 62.6496L123.289 46.7006L122.703 60.7897C124.479 59.754 126.052 58.7602 127.362 57.9156L133.974 31.9116L132.378 54.3596C142.727 46.3621 140 42.6332 153.566 30.5012C156.068 28.261 158.479 26.3181 160.877 24.5499L163.544 10.2453L164.713 21.8815C172.54 16.6705 180.104 13.1401 188.333 8.31536L191.771 -6.45937L191.959 6.15901C196.773 3.19222 201.383 -0.0924065 205.759 -3.67299L210.462 -25.0528L210.039 -7.2826C225.911 -21.2188 218.345 -20.8496 227.216 -39.2036C235.013 -44.793 242.469 -50.3454 249.351 -55.7652C254.084 -59.4899 254.635 -64.2009 252.747 -66.9155C252.325 -67.5346 251.767 -68.0496 251.116 -68.4216C250.465 -68.7935 249.738 -69.0127 248.99 -69.0624C248.654 -69.0818 248.317 -69.0701 247.983 -69.0274C247.405 -69.1128 246.816 -68.9967 246.314 -68.6988C246.09 -68.5927 245.885 -68.4504 245.708 -68.2774C244.974 -67.8229 244.306 -67.2689 243.724 -66.6311C237.248 -61.1627 230.501 -56.0248 223.507 -51.2369C214.295 -53.277 204.803 -53.733 195.439 -52.5854C192.302 -52.1801 189.227 -51.3939 186.282 -50.244L200.726 -42.4481ZM34.2226 97.4015C33.8607 97.8862 33.3525 98.6392 32.6941 99.4633C32.0357 100.287 31.3119 101.257 30.3999 102.291C29.4879 103.325 28.5466 104.412 27.7106 105.46L24.8897 108.487C23.9845 109.483 23.0686 110.32 22.3409 111.092C21.6133 111.865 20.9041 112.424 20.473 112.857C20.0419 113.29 19.6654 113.419 19.6654 113.419L20.2253 112.597C20.6096 112.097 21.111 111.382 21.7694 110.558C22.4278 109.733 23.3057 108.89 24.1104 107.797L26.8153 104.651C27.7498 103.602 28.6998 102.575 29.6206 101.601C30.5414 100.628 31.4417 99.7685 32.1694 98.9961C32.8971 98.2236 33.6062 97.6638 34.0373 97.2308L34.845 96.669L34.2226 97.4015ZM147.164 -14.9786L147.698 -14.7845C148.16 -14.6346 148.614 -14.4614 149.058 -14.2655C149.601 -14.0109 150.265 -13.7739 150.925 -13.4003L152.985 -12.3039L154.981 -11.0621C155.595 -10.6573 156.149 -10.2437 156.634 -9.88184C157.119 -9.51995 157.49 -9.17854 157.767 -8.97175L158.079 -8.52306L157.537 -8.67915C157.209 -8.81669 156.728 -8.98156 156.185 -9.23615C155.641 -9.49076 154.977 -9.72781 154.333 -10.079L152.272 -11.1754L150.277 -12.4171C149.64 -12.8063 149.093 -13.258 148.624 -13.5974C148.219 -13.88 147.835 -14.1916 147.476 -14.5299L147.164 -14.9786ZM128.597 7.62264L125.515 5.87169L122.492 4.01345C121.517 3.42623 120.671 2.78342 119.918 2.27521C119.165 1.76701 118.564 1.28611 118.148 0.975926L117.478 0.443335L118.266 0.761348C118.733 1.00229 119.451 1.2686 120.255 1.70756C121.06 2.14652 122.03 2.53671 123.027 3.10833L126.116 4.82124L129.133 6.71753C130.107 7.30475 130.938 7.92513 131.691 8.43334C132.444 8.94154 133.045 9.42242 133.46 9.73262L134.13 10.2652L133.366 9.93159C132.876 9.70625 132.158 9.43994 131.369 9.02341C130.58 8.60689 129.646 8.12501 128.597 7.62264ZM98.3317 41.2577C70.008 58.8284 14.6817 104.436 14.6817 104.436L17.05 102.289C18.6146 100.901 20.8863 98.855 23.7843 96.2734C26.6822 93.6917 30.2757 90.6263 34.3675 87.0811C38.4594 83.5358 43.1589 79.6678 48.2984 75.4271C50.8725 73.337 53.5275 71.1241 56.3416 68.9004C59.1557 66.6767 62.0283 64.3457 64.9408 62.12C66.5112 61.0277 67.9724 59.7783 69.5252 58.5651C71.0781 57.3518 72.7333 56.3336 74.2618 55.0374C77.4436 52.6245 80.8517 50.1541 84.1183 47.8153C87.3849 45.4765 90.9832 43.0402 94.483 40.6059C96.2328 39.3887 97.9827 38.1716 99.8487 37.0734C101.715 35.9752 103.449 34.7356 105.268 33.5702C108.976 31.2909 112.773 28.9493 116.527 26.7373C120.281 24.5254 124.17 22.2198 127.999 19.923C135.586 15.2777 143.112 10.5427 150.478 5.81838C157.844 1.09407 165.043 -3.67999 171.979 -8.30483C178.915 -12.9297 185.533 -17.5331 191.799 -21.9248C198.065 -26.3166 204.003 -30.4138 209.337 -34.4233C220.144 -42.2403 228.956 -49.0021 235.053 -53.8757C238.099 -56.2935 240.417 -58.2724 241.982 -59.6602C242.761 -60.3106 243.497 -61.0114 244.184 -61.7581L244.356 -61.5114C244.981 -60.7099 245.684 -59.9722 246.454 -59.3089C246.765 -59.0674 247.125 -58.8962 247.509 -58.807C247.893 -58.7177 248.292 -58.7125 248.678 -58.7918C248.951 -58.862 249.19 -59.0282 249.351 -59.26C249.119 -59.1955 248.875 -59.1986 248.645 -59.2688C248.383 -59.3393 248.138 -59.4636 247.926 -59.6336C248.284 -59.7089 248.623 -59.8554 248.924 -60.0645C249.225 -60.2736 249.48 -60.541 249.675 -60.8508C250.505 -62.381 250.846 -64.1284 250.653 -65.8583L250.545 -66.3489L250.904 -65.8329C252.214 -63.9484 251.891 -60.3942 247.99 -57.1483C201.258 -20.4818 126.655 23.6869 98.3317 41.2577ZM243.828 -63.2749C243.92 -62.7398 244.1 -62.2235 244.359 -61.7464C244.067 -61.5436 243.331 -60.8316 241.993 -59.8348C240.288 -58.6489 237.798 -56.9167 234.613 -54.7009C228.219 -50.2535 218.986 -44.0975 207.888 -36.7447C202.305 -33.0942 196.296 -29.1472 189.889 -24.9574C187.646 -23.3969 185.181 -21.9154 182.779 -20.3442C212.037 -40.4958 237.414 -58.7134 243.766 -64.1303C243.737 -63.8758 243.737 -63.619 243.766 -63.3646L243.828 -63.2749ZM95.7294 22.7284L93.1594 21.1872C92.3616 20.7102 91.6535 20.1708 91.0391 19.766L89.5624 18.6959L89.0152 18.2443L89.6795 18.4813C90.0842 18.6325 90.6724 18.8559 91.3609 19.1759C92.0495 19.4959 92.8523 19.8363 93.6793 20.2597L96.3391 21.7385L98.9091 23.2797C99.7226 23.7791 100.415 24.2961 101.045 24.7233C101.675 25.1506 102.153 25.5505 102.522 25.7934L103.053 26.2226L102.389 25.9855C102.007 25.8187 101.396 25.6109 100.708 25.291C100.019 24.971 99.2319 24.653 98.3892 24.2072L95.7294 22.7284ZM66.1838 35.6232L65.4621 35.1599L66.2785 35.4242C66.7974 35.5959 67.5445 35.8086 68.4077 36.1403C69.2708 36.4719 70.3242 36.8378 71.4488 37.3538L74.805 38.7809L78.0578 40.3466C79.1063 40.8489 80.0494 41.3913 80.8297 41.7474C81.61 42.1034 82.3093 42.5823 82.7696 42.8613L83.5138 43.3091L82.6906 43.0827C82.1717 42.911 81.4246 42.6984 80.5458 42.3443C79.667 41.9902 78.6449 41.6692 77.5047 41.1307L74.1709 39.688L70.8801 38.1155C69.8472 37.6356 68.8885 37.0708 68.1082 36.7148C67.3279 36.3587 66.5818 35.8125 66.1214 35.5335L66.1838 35.6232ZM68.1619 53.2551C67.766 53.1644 67.211 53.0843 66.5555 52.9078C65.9001 52.7312 65.1081 52.5497 64.3142 52.2698L61.7958 51.4249L59.2999 50.5645C58.5128 50.2465 57.8154 49.8661 57.1961 49.5978L55.7253 48.8233L55.1956 48.4926L55.8267 48.5863C56.2003 48.6926 56.7777 48.757 57.4331 48.9336C58.0886 49.1102 58.8581 49.3073 59.6745 49.5716L62.1928 50.4164L64.6614 51.429C65.4486 51.747 66.1684 52.1118 66.7653 52.3957C67.3622 52.6796 67.8762 52.9878 68.2361 53.1702L68.8037 53.5077L68.1619 53.2551ZM58.7487 89.0633C58.578 90.0143 58.3224 90.8912 58.1478 91.6451C57.9731 92.3991 57.7654 93.0096 57.6454 93.4593L57.4083 94.1235L57.4171 93.4183C57.4386 92.9706 57.4182 92.319 57.4787 91.5446C57.5392 90.7702 57.589 89.8367 57.7217 88.8789L58.1247 85.869L58.6798 82.8863C58.8506 81.9353 59.1061 81.0585 59.2808 80.3045C59.4554 79.5506 59.6856 78.9244 59.8056 78.4748L60.0271 77.7881L60.0339 78.5158C60.0124 78.9634 60.0104 79.6306 59.9499 80.405C59.8894 81.1795 59.8464 82.0749 59.7293 83.0551L59.3263 86.0651L58.7487 89.0633ZM79.4163 81.1122L79.2464 84.0266L79.1625 85.1502L78.9889 84.0393C78.9372 83.3429 78.7881 82.3148 78.7491 81.1102C78.7102 79.9057 78.681 78.428 78.6986 77.0176C78.7162 75.6072 78.7085 73.6818 78.8832 72.1622C79.0579 70.6426 79.2823 68.9552 79.533 67.4493C79.7759 66.1093 80.0862 64.7824 80.4628 63.4737C80.735 62.2857 81.0647 61.324 81.2637 60.653L81.6139 59.5772L81.4919 60.6939L81.1251 63.6122C80.9514 64.7983 80.8352 66.2106 80.645 67.7078C80.4547 69.205 80.3044 70.8075 80.1765 72.3944C80.0487 73.9813 79.8535 75.6151 79.7618 77.1103L79.4163 81.1122ZM202.523 -15.9355C202.477 -15.5707 202.442 -15.0469 202.332 -14.4383C202.223 -13.8297 202.131 -13.1001 201.957 -12.3462L201.397 -9.99263L200.629 -7.79419C200.416 -7.04707 200.119 -6.37408 199.896 -5.78594C199.72 -5.31415 199.519 -4.85215 199.294 -4.40192L199.046 -3.89669L199.072 -4.48094L199.24 -5.96251C199.372 -6.58674 199.441 -7.30071 199.616 -8.05467L200.176 -10.4082C200.418 -11.209 200.637 -11.9941 200.888 -12.7344C201.139 -13.4747 201.376 -14.1389 201.599 -14.7271C201.822 -15.3152 202.063 -15.7824 202.201 -16.1111L202.471 -16.6319L202.523 -15.9355ZM186.305 -7.61742C186.268 -7.19215 186.279 -6.60109 186.172 -5.89396C186.065 -5.18682 186.042 -4.40554 185.87 -3.55308L185.407 -0.867906L184.77 1.80555C184.559 2.65119 184.286 3.40709 184.103 4.10057C183.919 4.79404 183.672 5.29927 183.543 5.68843L183.297 6.29217L183.315 5.64745C183.352 5.2222 183.356 4.65356 183.441 3.96202C183.525 3.27049 183.577 2.43557 183.75 1.58311L184.212 -1.10206L184.843 -3.73747C185.038 -4.60554 185.333 -5.37704 185.51 -6.03248C185.686 -6.68792 185.948 -7.26923 186.077 -7.65839L186.3 -8.24654L186.305 -7.61742ZM143.457 20.7548C143.364 21.3859 143.276 22.3125 143.062 23.3932C142.848 24.4739 142.67 25.7965 142.379 27.1971L141.485 31.4145L140.353 35.5305C140.009 36.9019 139.615 38.1074 139.303 39.1901C138.991 40.2727 138.697 41.1427 138.49 41.7533L138.137 42.7306L138.261 41.7123C138.355 41.0813 138.465 40.1391 138.641 39.0515C138.817 37.964 139.033 36.6482 139.324 35.2476L140.225 30.9921L141.357 26.8761C141.717 25.5272 142.117 24.2836 142.407 23.2166C142.696 22.1496 143.051 21.2708 143.22 20.6534L143.572 19.6761L143.457 20.7548ZM117.293 38.6544C117.235 39.1938 117.251 39.9819 117.125 40.9017C116.999 41.8214 116.938 42.9294 116.749 44.093L116.245 47.7721L115.453 51.419C115.248 52.5602 114.943 53.6048 114.718 54.5265C114.494 55.4482 114.259 56.2109 114.125 56.7366L113.987 57.3989L114.023 56.5415C114.065 55.9797 114.087 55.1985 114.175 54.2719C114.263 53.3453 114.385 52.2285 114.552 51.0805L115.055 47.4014L115.832 43.7321C116.059 42.5753 116.364 41.5307 116.566 40.6246C116.768 39.7185 117.041 38.9626 117.175 38.4369L117.439 37.6205L117.293 38.6544ZM182.992 -25.2533L183.743 -24.8436L182.898 -25.0543C182.372 -25.1879 181.618 -25.3626 180.726 -25.6406C179.833 -25.9186 178.804 -26.2015 177.72 -26.6122L174.307 -27.8336L170.944 -29.2227C169.882 -29.649 168.909 -30.1377 168.06 -30.5454C167.21 -30.9532 166.529 -31.3112 166.023 -31.5589L165.295 -31.9842L166.118 -31.7579C166.644 -31.6243 167.42 -31.4652 168.29 -31.1716C169.16 -30.878 170.211 -30.6107 171.318 -30.2156L174.709 -28.9786L178.065 -27.5515C179.15 -27.1408 180.1 -26.6365 180.972 -26.2443C181.843 -25.8522 182.465 -25.4854 182.992 -25.2533ZM190.198 -33.128C190.605 -32.8783 190.913 -32.6266 191.159 -32.4647L191.408 -32.1058L190.952 -32.1877C190.567 -32.2334 190.187 -32.3147 189.817 -32.4306C189.352 -32.5731 188.804 -32.6911 188.232 -32.8921L186.505 -33.5554L184.829 -34.3865C184.285 -34.6411 183.832 -34.9581 183.403 -35.1922L182.442 -35.8556L182.192 -36.2145L182.649 -36.1325C183.032 -36.077 183.411 -35.9958 183.783 -35.8896C184.248 -35.7472 184.796 -35.6291 185.347 -35.4126L187.095 -34.7648L188.772 -33.9337C189.293 -33.6635 189.668 -33.4587 190.175 -33.1124L190.198 -33.128Z" fill="white" fill-opacity="0.1"/>
</svg>
