<svg width="154" height="92" viewBox="0 0 154 92" fill="none" xmlns="http://www.w3.org/2000/svg">
<path d="M-39.1073 22.9957C-38.2892 22.1967 -37.3138 21.5767 -36.2431 21.1752C-35.1723 20.7737 -34.0298 20.5994 -32.888 20.6634C-30.9087 20.6096 -28.9587 21.1513 -27.2907 22.2183C-26.7531 21.9006 -26.1917 21.6251 -25.6115 21.3942C-21.8954 19.9327 -15.6295 19.2019 -6.95361 19.2019C2.4686 19.2019 14.192 20.0726 26.615 20.99C40.9038 22.0628 55.6591 23.1512 69.5903 23.1978C70.9214 22.2287 72.5154 21.6865 74.1614 21.643C75.6178 21.6574 77.0385 22.095 78.2506 22.9024C82.5966 21.6052 87.0787 20.8173 91.6065 20.5546C92.2907 20.5546 92.9126 20.5546 93.4879 20.6324C93.5305 19.5537 93.9195 18.5175 94.5972 17.6774C95.275 16.8372 96.2054 16.2378 97.2505 15.9679C96.2111 15.423 95.3471 14.595 94.7583 13.5798C94.1695 12.5645 93.88 11.4034 93.9232 10.2306C93.9004 8.98045 94.2294 7.74905 94.8727 6.67687C95.516 5.6047 96.4477 4.73493 97.5615 4.1668C97.5615 4.04241 97.6859 3.91803 97.7636 3.79364C98.9298 2.09888 101.822 -0.000125012 114.509 -0.000123903C127.196 -0.000122794 130.057 2.09889 131.177 3.93358C131.256 4.05113 131.324 4.1761 131.379 4.30673C132.494 4.87416 133.428 5.74332 134.074 6.81532C134.72 7.88732 135.052 9.11912 135.033 10.3705C135.074 11.545 134.783 12.7072 134.191 13.7226C133.599 14.738 132.732 15.565 131.69 16.1078C132.781 16.3923 133.746 17.0335 134.43 17.9294C135.115 18.8254 135.48 19.9246 135.468 21.0522C135.482 21.668 135.374 22.2805 135.149 22.8542C134.925 23.428 134.59 23.9517 134.162 24.395L134.162 36.8336C134.59 37.277 134.925 37.8006 135.149 38.3744C135.374 38.9482 135.482 39.5606 135.468 40.1765C135.479 41.3 135.112 42.3947 134.427 43.2855C133.742 44.1762 132.778 44.8115 131.69 45.0897C132.735 45.6336 133.603 46.4631 134.195 47.4815C134.787 48.4999 135.077 49.6655 135.033 50.8425C135.055 52.0924 134.724 53.3232 134.077 54.3932C133.431 55.4631 132.496 56.3289 131.379 56.8908C131.324 57.0265 131.256 57.1566 131.177 57.2795C130.088 59.0986 127.196 61.2132 114.509 61.2132C101.822 61.2132 98.9608 59.0986 97.8258 57.2795C97.8258 57.1551 97.6859 57.0152 97.6237 56.8908C96.5087 56.3282 95.5756 55.4618 94.9318 54.3917C94.2881 53.3215 93.96 52.0911 93.9854 50.8425C93.9392 49.6671 94.2273 48.5027 94.8162 47.4844C95.4052 46.4662 96.2708 45.6358 97.3127 45.0897C96.223 44.8103 95.2591 44.1721 94.5765 43.2779C93.8939 42.3838 93.5323 41.2857 93.5501 40.1609C93.5447 39.7952 93.5812 39.43 93.6589 39.0725C93.0525 39.0725 92.384 39.1503 91.6687 39.1503C87.1424 38.8843 82.6614 38.1018 78.3128 36.818C77.096 37.6136 75.6773 38.0451 74.2236 38.0619C72.5762 38.0263 70.9799 37.4834 69.6525 36.5071C55.6591 36.5071 40.966 37.6576 26.6772 38.7149C14.2386 39.6323 2.53079 40.5185 -6.89142 40.5185C-15.5518 40.5185 -21.8177 39.7722 -25.5493 38.3107C-26.1323 38.0861 -26.6942 37.8104 -27.2285 37.4866C-28.8965 38.5536 -30.8465 39.0953 -32.8259 39.0414C-33.9676 39.1055 -35.1102 38.9312 -36.1809 38.5297C-37.2516 38.1282 -38.227 37.5082 -39.0451 36.7092C-41.8905 36.5226 -45.0001 34.6413 -45.0001 29.8369C-45.0001 25.0325 -41.9682 23.1823 -39.1073 22.9957ZM129.062 54.9473C130.011 54.7359 130.86 54.2085 131.471 53.4515C132.081 52.6945 132.416 51.7526 132.421 50.7803C132.484 49.869 132.198 48.9678 131.62 48.2601C131.042 47.5524 130.217 47.0914 129.311 46.971C129.311 44.9653 127.756 44.872 127.756 44.872L115.955 44.872C115.955 44.872 119.842 42.9907 127.756 42.9907C131.659 42.9907 132.887 41.6846 132.887 40.0987C132.908 39.6655 132.794 39.2364 132.56 38.8713C132.326 38.5062 131.984 38.2232 131.581 38.0619L113.312 38.0619C113.312 38.0619 131.55 36.647 131.55 33.6618L131.55 27.4425C131.55 24.7371 113.312 23.0423 113.312 23.0423L131.55 23.0423C131.95 22.8819 132.29 22.6013 132.524 22.2393C132.758 21.8773 132.874 21.4517 132.856 21.0211C132.856 19.4662 131.628 18.1291 127.725 18.1291C119.811 18.1291 115.924 16.2478 115.924 16.2478L127.725 16.2478C127.725 16.2478 129.28 16.1545 129.28 14.1488C130.185 14.0284 131.011 13.5674 131.589 12.8597C132.167 12.152 132.453 11.2508 132.39 10.3394C132.373 9.38017 132.037 8.45385 131.434 7.70743C130.831 6.96101 129.997 6.43723 129.062 6.21916C129.062 6.21916 130.959 2.64307 114.509 2.64307C112.861 2.64307 111.399 2.64307 110.124 2.73636C109.553 2.93514 109.033 3.26081 108.605 3.68895C108.177 4.11709 107.851 4.6366 107.652 5.20853C109.347 5.13079 111.368 5.08414 113.794 5.08414C126.232 5.08414 128.254 6.28136 128.254 6.28136L99.334 6.28135C99.334 6.28135 100.593 6.99657 106.984 7.32309C106.595 9.23671 106.595 11.2089 106.984 13.1226C108.787 13.0448 111.011 12.9826 113.732 12.9826C126.17 12.9826 128.191 14.1798 128.191 14.1798L99.2718 14.1798C99.2718 14.1798 100.64 14.9573 107.699 15.2527C107.933 15.9013 108.352 16.4669 108.905 16.8788C109.458 17.2907 110.12 17.5309 110.809 17.5694C110.809 17.5694 110.342 17.8337 109.876 19.4507L113.934 19.4507C128.176 19.4507 130.555 20.6479 130.555 20.6479L97.3438 20.6479C97.3438 20.6479 99.2096 21.5653 109.425 21.7985C109.057 24.3269 108.865 26.8777 108.85 29.4326C109.798 29.4326 110.886 29.4326 112.084 29.4326C121.552 29.4327 123.138 30.6299 123.138 30.6299L101.075 30.6299C101.075 30.6299 102.288 31.5472 108.85 31.7804C108.859 34.2428 108.999 36.7029 109.269 39.1503C110.653 39.1503 112.192 39.1503 113.934 39.1503C128.176 39.1503 130.555 40.3475 130.555 40.3475L97.3438 40.3475C97.3438 40.3475 99.2407 41.2959 109.689 41.4981C109.828 42.7358 110.22 43.9318 110.84 45.012C110.438 45.0177 110.042 45.1079 109.678 45.2767C109.314 45.4454 108.989 45.689 108.725 45.9915C110.187 45.9915 111.835 45.9138 113.794 45.9138C126.232 45.9138 128.254 47.111 128.254 47.111L99.334 47.111C99.334 47.111 100.671 47.8728 107.512 48.1838C106.937 50.0506 106.809 52.0268 107.139 53.9522C108.927 53.8744 111.12 53.8123 113.794 53.8123C126.232 53.8123 128.254 55.0095 128.254 55.0095L99.334 55.0095C99.334 55.0095 100.687 55.7869 107.73 56.0823C107.912 56.6511 108.222 57.1702 108.637 57.5991C109.053 58.0279 109.562 58.3549 110.124 58.5545C111.415 58.5545 112.861 58.6477 114.509 58.6477C130.959 58.5389 129.062 54.9473 129.062 54.9473ZM74.2236 24.3639C72.8537 24.4257 71.5515 24.9775 70.5543 25.9187C43.8735 25.9187 13.1813 21.9073 -6.89142 21.9073C-26.9642 21.9073 -27.1041 25.9498 -27.1041 25.9498C-27.7463 25.0553 -28.6098 24.3428 -29.6101 23.8822C-30.6103 23.4216 -31.7131 23.2286 -32.8103 23.3222C-36.9306 23.3222 -37.8168 25.7011 -37.8168 25.7011C-38.0828 25.6466 -38.3538 25.6206 -38.6253 25.6233C-39.9469 25.6233 -42.4502 26.1364 -42.4502 29.9302C-42.4502 32.0914 -40.118 31.8426 -38.8119 31.485L-37.9101 26.4318L-36.9617 31.7649C-34.1277 32.8738 -30.9798 32.8738 -28.1458 31.7649L-27.1974 26.4318L-26.2489 31.7649C-24.4298 32.5267 -19.2833 33.9261 -5.86524 33.9261C11.3311 33.9261 62.407 31.6405 69.6525 31.2984L70.5232 26.4318L71.4561 31.6871C73.1898 32.3103 75.0864 32.3103 76.8202 31.6871L77.7531 26.4318L78.6238 31.3606C81.0182 31.6405 88.528 32.5423 91.7154 32.9154C91.7154 32.6978 91.7154 32.4646 91.7154 32.2469L79.8832 30.4899L91.6065 30.7232C91.4511 28.5775 91.3578 26.5407 91.2956 25.0014L86.6311 24.5194L91.2956 23.8975C91.2956 23.6798 91.2956 23.4932 91.2956 23.3222C86.7041 23.6922 82.1647 24.5469 77.7531 25.8721C76.8062 24.9462 75.5472 24.4082 74.2236 24.3639Z" fill="white" fill-opacity="0.1"/>
<path d="M53.0473 31.0965C48.6938 31.3297 43.6251 31.5629 38.1832 31.765L29.8027 32.0449L21.1423 32.2781L12.4975 32.4336C9.63666 32.4336 6.82243 32.4336 4.10149 32.5114C-1.34039 32.5114 -6.42464 32.5114 -10.7937 32.3092C-15.1627 32.1071 -18.7699 31.8894 -21.3043 31.6407C-22.5637 31.5163 -23.5588 31.3763 -24.2273 31.2675C-24.8959 31.1587 -25.2535 31.0498 -25.2535 31.0498C-25.2535 31.0498 -24.8959 31.0498 -24.2273 31.1742C-23.5588 31.2986 -22.5482 31.252 -21.2732 31.2986C-18.7388 31.3919 -15.0539 31.2986 -10.7782 31.2986C-6.5024 31.2986 -1.35593 31.1276 4.0704 30.9876L21.1734 30.5523C26.9729 30.4434 32.7724 30.3035 38.2765 30.2413C43.7805 30.1791 48.7871 30.1169 53.1406 30.1014C57.4941 30.0858 61.1323 30.1014 63.6667 30.1014L67.6626 30.1014C67.6626 30.1014 66.2166 30.2258 63.6823 30.3813C61.1479 30.5367 57.4008 30.8788 53.0473 31.0965Z" fill="white" fill-opacity="0.1"/>
<path d="M74.1302 26.0899C73.9699 26.0746 73.8085 26.0746 73.6482 26.0899L73.1818 26.0899C72.8864 26.0899 72.6065 26.0899 72.3577 26.1832L71.7358 26.3231L71.5337 26.4319C71.716 26.1751 71.9488 25.9582 72.2178 25.7945C72.3362 25.7036 72.4671 25.6303 72.6065 25.5768C72.7552 25.4765 72.9175 25.3979 73.0885 25.3436C73.4481 25.2468 73.8203 25.2048 74.1924 25.2192C74.5618 25.2332 74.9278 25.2959 75.2808 25.4057C75.5789 25.5044 75.8656 25.6347 76.1359 25.7945C76.4082 25.9466 76.6548 26.1408 76.8667 26.3697L75.9805 26.2609C75.4207 26.1987 74.7677 26.1054 74.1302 26.0899Z" fill="white" fill-opacity="0.1"/>
<path d="M18.1725 24.5506L11.3624 24.3174C8.87471 24.2241 6.23151 24.1463 3.58832 24.0841C0.94512 24.0219 -1.71363 23.9131 -4.18579 23.8509L-10.9959 23.6643L-17.635 23.4777L-15.847 23.3223C-14.6808 23.3223 -13.0172 23.1823 -11.027 23.1512C-9.03683 23.1201 -6.70461 23.0579 -4.21689 23.0735C-1.72918 23.089 0.945114 23.0735 3.55721 23.1823C6.16931 23.2912 8.85915 23.4 11.3313 23.5399C13.8035 23.6799 16.1357 23.8665 18.1259 24.0375C20.1161 24.2085 21.7642 24.3951 22.9147 24.5195L24.7339 24.7372L22.8992 24.7372L18.1725 24.5506Z" fill="white" fill-opacity="0.1"/>
<path d="M124.74 51.3092L121.63 51.3092L118.521 51.3092C117.541 51.3092 116.624 51.2159 115.846 51.1693C115.069 51.1226 114.4 51.0449 113.95 51.0138L113.234 50.9361L113.95 50.8428C114.4 50.8428 115.069 50.7184 115.846 50.6873C116.624 50.6562 117.541 50.5629 118.521 50.5474L121.63 50.5474L124.74 50.5474C125.72 50.5474 126.637 50.6562 127.414 50.6873C128.192 50.7184 128.86 50.8117 129.311 50.8428L130.042 50.9361L129.311 51.0138C128.86 51.0138 128.207 51.1382 127.414 51.1693C126.621 51.2004 125.72 51.3092 124.74 51.3092Z" fill="white" fill-opacity="0.1"/>
<path d="M124.74 10.8838L121.63 10.8838L118.521 10.8838C117.541 10.8838 116.624 10.7905 115.846 10.7594C115.069 10.7283 114.4 10.635 113.95 10.6039L113.234 10.5106L113.95 10.5106C114.4 10.5106 115.069 10.3862 115.846 10.3396C116.624 10.2929 117.541 10.2308 118.521 10.2152L121.63 10.2152L124.74 10.2152C125.72 10.2152 126.637 10.3085 127.414 10.3396C128.192 10.3707 128.86 10.464 129.311 10.5106L130.042 10.5106L129.311 10.5106C128.86 10.5106 128.207 10.635 127.414 10.6817C126.621 10.7283 125.72 10.8838 124.74 10.8838Z" fill="white" fill-opacity="0.1"/>
<path d="M84.5633 69.516C85.2377 68.6194 86.1079 67.8887 87.1076 67.3794C88.1072 66.8702 89.21 66.5958 90.3317 66.5774L139.402 66.5774C140.524 66.5958 141.626 66.8702 142.626 67.3794C143.626 67.8887 144.496 68.6194 145.17 69.516C151.623 70.962 153.939 82.2811 153.939 85.3285C153.939 91.7344 145.854 91.7344 143.196 91.7344L86.5379 91.7344C83.8792 91.7344 75.7941 91.7344 75.7941 85.3596C75.7941 82.2811 78.1108 70.962 84.5633 69.516ZM151.421 83.2295C151.327 82.5454 151.187 81.8457 151.032 81.1616C150.713 79.793 150.287 78.4517 149.757 77.1502C149.241 75.8197 148.522 74.5768 147.627 73.4653C147.397 73.1836 147.142 72.9234 146.865 72.6878C146.596 72.4359 146.299 72.2167 145.979 72.0348C145.649 71.8199 145.294 71.6475 144.921 71.5217C144.622 71.4395 144.314 71.3874 144.004 71.3662C143.37 70.2507 142.394 69.3679 141.221 68.8474C140.9 68.7195 140.567 68.6257 140.226 68.5676C139.898 68.5064 139.565 68.4752 139.231 68.4743L137.365 68.4743C134.862 68.4743 132.359 68.4743 129.855 68.4743L114.867 68.4743L99.8783 68.4743C97.375 68.4743 94.8718 68.4743 92.3685 68.4743L90.5027 68.4743C89.821 68.4798 89.1463 68.6116 88.5126 68.863C87.3388 69.3687 86.3656 70.249 85.745 71.3662C85.4305 71.3943 85.1187 71.4463 84.8121 71.5217C84.4538 71.6387 84.1096 71.7951 83.7859 71.9882C83.4658 72.1701 83.1683 72.3893 82.8997 72.6412C82.6227 72.8767 82.3677 73.1369 82.1378 73.4186C81.6443 73.974 81.2165 74.5844 80.8628 75.2377C80.5134 75.8534 80.2069 76.4924 79.9455 77.1502C79.4133 78.4562 78.987 79.8028 78.6705 81.1772C78.5151 81.8457 78.3751 82.5454 78.2818 83.2295C78.1759 83.9241 78.124 84.6259 78.1264 85.3285C78.2455 83.9375 78.506 82.5621 78.9038 81.2238C79.2782 79.8877 79.7565 78.5828 80.3342 77.3212C80.8978 76.0726 81.6359 74.9104 82.5265 73.8695C82.7546 73.6207 82.9987 73.3869 83.2573 73.1698C83.5037 72.952 83.7751 72.7641 84.0658 72.6101C84.3443 72.4526 84.6422 72.3324 84.952 72.2525C85.2549 72.1639 85.5694 72.122 85.8849 72.1281L86.1026 72.1281L86.2114 71.926C86.7858 70.9144 87.684 70.1257 88.7613 69.687C89.2579 69.5 89.7857 69.4103 90.3162 69.4227C89.9532 69.6975 89.6619 70.0559 89.467 70.4673C89.2722 70.8787 89.1794 71.3311 89.1967 71.786L142.791 71.786C142.791 71.786 97.7016 73.7451 85.5273 76.3261L144.284 77.741L83.4749 79.187C83.2046 80.2405 83.043 81.319 82.9929 82.4055L147.285 83.9603L83.2884 85.4218C83.2884 85.4218 83.2884 85.4218 83.2884 85.5151C94.0633 87.7385 116.857 88.1117 150.006 88.1117C150.494 87.8417 150.898 87.4415 151.173 86.9556C151.447 86.4698 151.581 85.9173 151.561 85.3596C151.568 85.2198 151.568 85.0797 151.561 84.9398C151.536 84.367 151.479 83.796 151.39 83.2295L151.421 83.2295Z" fill="white" fill-opacity="0.1"/>
</svg>
