<svg width="21" height="21" viewBox="0 0 21 21" fill="none" xmlns="http://www.w3.org/2000/svg">
<path d="M20.5002 10.49C20.5006 10.2719 20.452 10.0566 20.358 9.85973C20.2641 9.66291 20.1272 9.48966 19.9574 9.35275L18.6691 8.27962L19.259 6.74463C19.3355 6.54108 19.3659 6.32311 19.3481 6.1064C19.3302 5.88968 19.2645 5.67963 19.1558 5.49133C19.047 5.30304 18.8979 5.14121 18.7191 5.01747C18.5403 4.89373 18.3362 4.81117 18.1217 4.77573L16.4691 4.49036L16.2124 2.86603C16.177 2.65145 16.0944 2.4474 15.9706 2.26856C15.8468 2.08973 15.685 1.94056 15.4966 1.8318C15.3083 1.72303 15.0982 1.65738 14.8814 1.63956C14.6647 1.62174 14.4466 1.65219 14.2431 1.72874L12.6694 2.30855L11.635 1.03033C11.4935 0.867668 11.3188 0.737253 11.1226 0.647883C10.9264 0.558513 10.7133 0.512268 10.4977 0.512268C10.2821 0.512268 10.069 0.558513 9.87284 0.647883C9.67665 0.737253 9.50191 0.867668 9.36042 1.03033L8.28729 2.31832L6.75268 1.72874C6.54909 1.65214 6.33105 1.62163 6.11425 1.63942C5.89745 1.65721 5.6873 1.72286 5.49892 1.83163C5.31054 1.9404 5.14862 2.08959 5.02483 2.26845C4.90104 2.44732 4.81845 2.65141 4.78301 2.86603L4.498 4.51893L2.8744 4.77501C2.65978 4.81048 2.45568 4.89307 2.2768 5.01685C2.09792 5.14063 1.9487 5.30252 1.83988 5.49088C1.73106 5.67923 1.66533 5.88936 1.64744 6.10616C1.62955 6.32295 1.65994 6.54102 1.73641 6.74466L2.31622 8.31873L1.03732 9.35275C0.869331 9.49089 0.734037 9.66454 0.641171 9.86122C0.548305 10.0579 0.500176 10.2727 0.500244 10.4902C0.500313 10.7077 0.548577 10.9225 0.641566 11.1191C0.734555 11.3157 0.869959 11.4893 1.03804 11.6273L2.32638 12.7005L1.73641 14.2354C1.65992 14.439 1.6295 14.6569 1.64735 14.8737C1.6652 15.0904 1.73087 15.3004 1.83963 15.4887C1.94839 15.677 2.09754 15.8389 2.27634 15.9626C2.45515 16.0864 2.65916 16.1689 2.8737 16.2044L4.52626 16.4897L4.78302 18.114C4.81854 18.3286 4.90117 18.5326 5.02496 18.7114C5.14874 18.8902 5.31062 19.0393 5.49893 19.148C5.68724 19.2568 5.89732 19.3225 6.11405 19.3403C6.33077 19.3582 6.54876 19.3278 6.75234 19.2513L8.32605 18.6715L9.36042 19.9497C9.49843 20.1179 9.67201 20.2534 9.86867 20.3464C10.0653 20.4394 10.2802 20.4877 10.4977 20.4877C10.7153 20.4877 10.9301 20.4394 11.1268 20.3464C11.3234 20.2534 11.497 20.1179 11.635 19.9497L12.7081 18.6618L14.2428 19.2513C14.4464 19.3279 14.6644 19.3584 14.8812 19.3406C15.098 19.3228 15.3081 19.2571 15.4965 19.1484C15.6849 19.0396 15.8468 18.8904 15.9706 18.7116C16.0944 18.5327 16.177 18.3286 16.2125 18.114L16.4975 16.4611L18.1211 16.2051C18.3357 16.1696 18.5398 16.087 18.7187 15.9632C18.8976 15.8394 19.0468 15.6776 19.1556 15.4892C19.2644 15.3008 19.3302 15.0907 19.348 14.8739C19.3659 14.6571 19.3356 14.4391 19.2591 14.2354L18.6793 12.6613L19.9582 11.6273C20.1277 11.4903 20.2644 11.317 20.3582 11.1202C20.452 10.9234 20.5005 10.708 20.5002 10.49Z" fill="#747474"/>
<path d="M9.15426 13.8594C8.69278 13.8605 8.24347 13.7114 7.8743 13.4344L6.13941 12.1332C5.98785 12.0195 5.88768 11.8502 5.86092 11.6627C5.83417 11.4751 5.88302 11.2846 5.99673 11.133C6.11044 10.9815 6.2797 10.8813 6.46727 10.8545C6.65484 10.8278 6.84536 10.8766 6.99691 10.9903L8.73144 12.2916C8.8818 12.4028 9.06954 12.451 9.25488 12.4261C9.44022 12.4013 9.60858 12.3052 9.7243 12.1583L13.8632 6.83609C13.9208 6.76201 13.9925 6.70001 14.0741 6.65362C14.1557 6.60724 14.2456 6.57738 14.3388 6.56575C14.4319 6.55412 14.5264 6.56095 14.6169 6.58585C14.7074 6.61074 14.7921 6.65322 14.8662 6.71085C14.9403 6.76849 15.0023 6.84015 15.0487 6.92174C15.095 7.00334 15.1249 7.09327 15.1365 7.1864C15.1482 7.27954 15.1413 7.37405 15.1164 7.46455C15.0915 7.55504 15.0491 7.63975 14.9914 7.71383L10.8522 13.0361C10.6505 13.2934 10.3927 13.5014 10.0984 13.6441C9.8042 13.7867 9.48127 13.8604 9.15426 13.8594Z" fill="white"/>
</svg>
