<svg width="125" height="52" viewBox="0 0 125 52" fill="none" xmlns="http://www.w3.org/2000/svg">
<path d="M29.8206 50.8828C30.0784 50.8594 30.3596 50.6953 30.4534 50.5312C30.6174 50.2734 30.594 49.8047 30.6877 49.4531C30.9221 48.6094 31.1565 47.7656 31.4612 46.9688L32.4456 44.1328L32.7737 43.1953C33.1018 42.375 33.4299 41.5312 33.8049 40.7344C33.9456 40.4297 34.0159 40.125 34.1565 39.7969C34.3206 39.3984 34.5315 38.9766 34.6956 38.5547C34.9065 38.0156 35.1174 37.4531 35.3752 36.9375C36.8284 36.5859 38.3987 36.2578 39.8049 35.8359L40.1331 35.8125C40.6487 35.625 40.9534 35.4609 41.094 34.9453C41.1174 34.8984 41.1409 34.8047 41.1409 34.7109V34.5703C41.0002 33.9844 40.7659 33.7734 40.1799 33.6094C40.0627 33.5859 39.8752 33.5156 39.6877 33.5156L39.4534 33.5625C39.0549 33.6797 38.5393 33.8672 38.1409 34.0312L37.8831 34.0781C37.7893 34.1016 37.6721 34.1719 37.6018 34.2188L37.3674 34.2422C37.0627 34.3594 36.7112 34.5703 36.3362 34.6172C36.3831 34.3594 36.5002 34.1484 36.594 33.9375C36.7815 33.4922 36.9221 33.0469 37.1331 32.625C37.4612 31.8984 37.719 31.125 38.0471 30.3516C38.3284 29.6484 38.6799 28.9219 38.9377 28.2188C40.1096 25.2422 41.3284 22.2656 42.4768 19.2656L42.6643 18.5859C42.8518 18.0234 43.1331 17.4141 43.344 16.8281C43.5081 16.3594 43.6018 15.9141 43.7893 15.4453C43.8127 15.375 43.8362 15.3047 43.8362 15.2344C43.9299 14.9297 44.0237 14.6016 44.1409 14.2734C44.3049 13.7812 44.4456 13.2891 44.5862 12.75C44.9143 11.5078 45.2893 9.9375 45.2893 8.4375V8.0625C45.2424 6.98438 44.9846 5.97656 44.3752 5.20312C43.7659 4.40625 42.7815 4.03125 41.6799 3.77344H41.469C41.1877 3.72656 41.0237 3.70312 40.6487 3.70312C40.5081 3.67969 40.2737 3.67969 40.0393 3.67969C39.4299 3.72656 39.2893 3.79688 38.9143 3.79688C38.7268 3.86719 38.5393 3.84375 38.2815 3.89062C37.5549 4.10156 36.7581 4.17188 36.0549 4.42969C33.7815 5.17969 31.6252 5.88281 29.5862 6.86719C23.2581 9.84375 17.6799 13.3359 12.4065 17.25C11.094 18.2344 9.87524 19.3594 8.58618 20.3906C8.14087 20.7656 7.74243 21.2578 7.27368 21.6328C7.15649 21.7266 7.06274 21.8906 6.92212 21.9844C6.57056 22.2891 6.28931 22.6172 5.98462 22.9688C5.44556 23.5547 4.83618 24.0703 4.36743 24.7266C4.27368 24.8672 4.08618 24.9609 3.99243 25.1016C3.66431 25.5938 3.45337 25.9453 3.00806 26.3906C2.37524 27.375 1.71899 28.3828 1.20337 29.4844C0.922119 30.0938 0.781494 30.8672 0.617432 31.5469C0.593994 31.5938 0.593994 31.6641 0.593994 31.7344V31.9219C0.593994 32.0391 0.593994 32.1797 0.570557 32.2969C0.547119 32.4141 0.547119 32.5781 0.547119 32.7188C0.547119 32.8828 0.570557 33.0469 0.593994 33.1641L0.617432 33.2812L0.593994 33.3984C0.711182 33.6328 0.664307 33.6328 0.687744 33.8672C0.804932 34.3125 0.992432 34.7109 1.17993 35.0391C1.20337 35.0859 1.20337 35.1094 1.20337 35.1562L1.43774 35.4844C1.55493 35.6719 1.53149 35.6719 1.71899 35.8125C2.75024 37.1719 4.15649 37.7578 5.82056 38.4375L6.07837 38.4609L6.64087 38.6719C6.71118 38.6719 6.78149 38.6719 6.85181 38.6953C7.43774 38.8828 8.16431 39 8.84399 39.1641C9.31274 39.2578 9.82837 39.2578 10.2268 39.3281C10.2971 39.3516 10.3674 39.3516 10.4377 39.3516H10.7659C11.3284 39.4688 12.0081 39.4219 12.5706 39.5391H13.2034C13.3674 39.5625 13.5081 39.5625 13.6721 39.5625H14.3284C14.5159 39.5625 14.7268 39.5625 14.9143 39.6094C15.0081 39.5859 15.0784 39.5859 15.1721 39.5859H16.0627L16.6018 39.6094C17.3987 39.5391 17.0237 39.5859 17.844 39.5391H18.3596C18.9221 39.5391 18.9924 39.4688 19.6018 39.4688C20.1877 39.3984 20.8206 39.4219 21.4768 39.2812L21.8049 39.3047L21.9221 39.2812C22.0159 39.2578 22.1331 39.2344 22.2502 39.2344C22.344 39.2344 22.4612 39.2344 22.5784 39.2109C23.4221 38.9531 24.5002 39.0469 25.3674 38.8125C25.5549 38.8125 25.7424 38.7891 25.9299 38.7656C26.469 38.6016 27.1956 38.625 27.7581 38.4609C27.8518 38.4375 27.9221 38.4141 27.9924 38.4141L28.344 38.3906C28.9534 38.2266 29.3987 38.1328 30.0081 38.0859L30.2424 38.0391C30.594 37.9219 31.0627 37.875 31.4377 37.7812C31.5549 37.7578 31.6956 37.7344 31.8127 37.7344C32.5862 37.5 33.4768 37.3594 34.2737 37.1719L33.9924 37.9453C33.7346 38.6484 33.4299 39.3516 33.1252 40.0547C32.7502 41.0156 32.3284 41.9531 31.9065 42.8906C31.8127 43.0547 31.7893 43.2188 31.7424 43.4062L30.5471 46.2656C30.4065 46.5703 30.3362 46.8984 30.1721 47.1797C30.0784 47.3438 30.0784 47.5312 29.9846 47.6953L29.5627 48.7969C29.3752 49.2656 29.1409 49.6172 29.0706 50.1562C29.0706 50.4844 29.3284 50.7422 29.5393 50.8359C29.6331 50.8594 29.7268 50.8828 29.8206 50.8828ZM16.0862 38.2734C15.8518 38.2734 15.5002 38.2266 15.3127 38.2266L15.1252 38.25C14.9846 38.2266 14.844 38.2266 14.6799 38.2266H14.3284C14.1409 38.2266 13.9534 38.2266 13.7893 38.1797L13.5081 38.2031L13.1096 38.1328L12.8284 38.1562C12.1721 38.0391 11.3987 38.0625 10.7893 37.9219C10.6721 37.8984 10.5784 37.8984 10.5081 37.8984C9.96899 37.8984 10.0159 37.8281 9.38306 37.7109H9.19556C8.18774 37.4531 7.15649 37.2422 6.24243 36.9141C6.17212 36.8906 6.12524 36.8203 6.07837 36.7969C5.53931 36.6094 5.04712 36.4219 4.60181 36.1406C4.46118 36.0469 4.32056 35.9062 4.17993 35.8125C3.59399 35.4375 2.93774 34.875 2.63306 34.2422C2.49243 33.9609 2.39868 33.6562 2.30493 33.3516C2.21118 33.0703 2.25806 32.8594 2.18774 32.5781C2.18774 32.3906 2.23462 32.25 2.23462 32.0859L2.21118 31.875C2.21118 31.6172 2.32837 31.2656 2.37524 31.0547C2.42212 30.8438 2.39868 30.7266 2.46899 30.5391C2.51587 30.3984 2.63306 30.2109 2.65649 30.0469C2.67993 30 2.67993 29.9531 2.67993 29.9062L2.91431 29.4141C3.52368 27.8672 4.48462 26.6484 5.42212 25.4062C5.67993 25.0547 5.96118 24.75 6.21899 24.3984C6.28931 24.2578 6.45337 24.1875 6.52368 24.0938C6.96899 23.5078 7.48462 22.9453 8.02368 22.4766C8.07056 22.4297 8.11743 22.3828 8.14087 22.3359C8.65649 21.9141 8.86743 21.7266 9.21899 21.2578C10.4377 20.2266 11.5862 19.1016 12.8752 18.1406C15.0784 16.4531 17.3518 14.8594 19.719 13.2891C20.3518 12.8438 21.0081 12.5391 21.6409 12.1172C23.844 10.7344 26.2346 9.51562 28.6487 8.32031C30.1252 7.59375 31.719 7.05469 33.2893 6.42188C33.8987 6.1875 34.5784 6.02344 35.1877 5.78906C35.3518 5.74219 35.469 5.76562 35.6331 5.71875C36.2893 5.50781 37.0627 5.41406 37.7659 5.20312C37.9534 5.15625 38.1409 5.15625 38.3049 5.13281C38.5862 5.13281 38.6799 5.0625 39.0315 5.0625L39.1487 5.03906H39.5237C40.9534 5.03906 42.3596 5.17969 43.0393 6.09375C43.4612 6.65625 43.6252 7.54688 43.6721 8.50781V8.88281C43.6721 10.0781 43.4846 11.3438 43.2502 12.1641C43.1331 12.5625 43.1331 12.9375 43.0393 13.3359C41.6565 18.6797 39.7815 23.5547 37.8831 28.4531L35.4456 34.4531C35.3752 34.6172 35.2581 34.7812 35.2346 34.9688C34.9534 35.0625 34.6252 35.2031 34.3674 35.2969C34.2971 35.2969 34.2034 35.2969 34.1096 35.3203C33.5706 35.5312 32.9143 35.6719 32.3518 35.8828C31.9065 35.9297 32.1409 36 31.7424 36C30.8987 36.2812 29.8909 36.4453 28.9768 36.7266C28.6956 36.7969 28.4143 36.7734 28.1331 36.8438C27.219 37.125 26.1409 37.2188 25.1799 37.4531L24.6643 37.5C23.844 37.7344 22.7893 37.6641 21.969 37.8984C21.8518 37.9219 21.7112 37.9219 21.6174 37.9219C21.5002 37.9219 21.4065 37.9453 21.3127 37.9688L21.0549 37.9453C20.8674 37.9922 20.5627 37.9922 20.3752 38.0391C19.7659 38.0391 20.0471 38.0391 19.4846 38.0625L19.0862 38.1094C18.969 38.1562 18.8049 38.1562 18.6174 38.1562L17.3752 38.2266H16.6018L16.4846 38.2031L16.0862 38.2734ZM42.8284 30.2812C43.0627 30.2812 43.3674 30.1641 43.5315 30.0938C43.6252 30.0703 43.6956 29.9766 43.7893 29.9297C43.8362 29.8359 43.9299 29.8359 44.0002 29.7891C44.1877 29.6719 44.3284 29.4844 44.469 29.3203C44.8674 28.8984 45.3362 28.4766 45.6409 27.9609H45.7112C45.6877 28.1719 45.594 28.5 45.594 28.7812V28.875C45.6174 29.0859 45.6174 29.2734 45.7346 29.4609C45.8284 29.6719 46.1331 29.9766 46.344 30.0234L46.6252 30.0469C46.719 30.0469 46.7893 30.0469 46.9299 30.0703L47.0237 30.0469C47.7971 29.7422 48.1252 29.5781 48.6643 28.9219C49.2268 28.4766 49.719 27.9375 50.2112 27.4219C50.7737 26.8594 51.4065 26.5312 51.4065 26.0156V25.9922C51.3831 25.6875 51.1018 25.3359 50.6799 25.3359H50.6331C50.469 25.3359 50.3049 25.3828 50.1643 25.5C49.9768 25.6641 49.8127 26.0625 49.3674 26.5547C48.9456 27.1406 48.3127 27.7266 47.7268 28.1719C47.5159 28.3359 47.2815 28.5938 46.9534 28.6641V28.5938C46.9534 28.0312 47.2346 27.5625 47.4456 27.1641C47.5627 26.9297 47.6331 26.6953 47.7502 26.4844C47.7971 26.3203 47.9377 26.1797 48.0315 26.0625C48.1487 25.8984 48.1721 25.7109 48.2893 25.5469C48.3596 25.4297 48.4768 25.3594 48.5471 25.2656L48.9456 24.4688C49.2971 23.9297 49.6956 23.625 49.7424 22.9688C49.719 22.4531 49.2034 22.0078 48.7112 22.0078C48.1018 22.0312 47.6331 23.0859 47.3987 23.6953C47.2346 23.6719 47.1643 23.25 47.0706 23.1328C46.8831 22.8281 46.3909 22.4531 46.1096 22.4531L45.7815 22.4766C45.7112 22.4531 45.594 22.4297 45.4768 22.4297C44.5393 22.5938 43.9065 23.2734 43.4846 23.8828C43.4377 23.9297 43.3909 23.9531 43.344 23.9766C43.2737 24.0469 43.2502 24.1406 43.2268 24.2109L43.0627 24.375C42.5237 25.1719 42.1252 26.0156 41.7502 27C41.6331 27.3516 41.3987 28.1016 41.3987 28.7344V28.8281C41.3987 29.1328 41.5159 29.3438 41.6331 29.5312C41.7737 29.7188 41.7737 29.9062 41.9846 30.0469C42.1018 30.1172 42.1956 30.0938 42.3596 30.1406C42.5471 30.2344 42.594 30.2578 42.8284 30.2812ZM43.4143 28.3125L43.3674 28.2891L43.344 27.9844C43.344 27.5625 43.4846 27.2109 43.6018 26.8828C43.8362 26.2734 44.1409 25.8281 44.469 25.3594C44.5393 25.1953 44.7268 25.1016 44.844 24.9609C44.9377 24.8672 45.0081 24.75 45.1252 24.6797C45.2659 24.5625 45.4534 24.4453 45.6174 24.3516C45.7112 24.3047 45.8049 24.3047 45.8987 24.2578H45.9221C46.3909 24.2578 46.4612 25.2656 46.4612 25.3594C46.4377 25.5703 45.969 25.9922 45.8518 26.1797C45.4299 26.7656 44.8674 27.2812 44.3049 27.7266C44.0471 27.9375 43.7659 28.2188 43.4143 28.3125ZM49.5784 31.6172L49.9299 31.5469C50.0706 31.5 50.1877 31.4766 50.3518 31.4766C50.6096 31.3359 50.8674 31.2422 51.1252 31.1016C52.0393 30.6562 53.1409 29.4844 53.1409 28.3594L53.1174 28.1016C53.5627 27.75 54.1487 27.4922 54.6643 27.2344C54.8987 27.0938 55.344 27 55.5081 26.8359C55.6018 26.7422 55.6956 26.5547 55.6956 26.3672C55.6956 26.25 55.6721 26.25 55.6252 26.1094C55.5549 25.9453 55.344 25.7578 55.0627 25.7578C54.9456 25.7578 54.9456 25.7812 54.8049 25.8281C54.6643 25.8984 54.5471 26.0156 54.4065 26.1094L53.4924 26.6484C53.2581 26.7891 52.9768 26.8594 52.8362 27.0234H52.8127C52.6487 27.0234 52.6487 26.8359 52.5549 26.7422C52.4143 26.5547 52.2268 26.3203 52.1799 26.0625L52.1565 25.9219C52.1565 25.8516 52.1799 25.7578 52.2268 25.6641C52.4377 25.1016 53.0002 24.6328 53.9143 23.6953L54.1018 23.625C54.2893 23.4844 54.4534 23.2734 54.5237 23.0391L54.5706 22.7812L54.5237 22.4766C54.4065 21.8906 54.0081 21.5859 53.4456 21.5859L53.094 21.6328C53.0237 21.7031 52.9299 21.7031 52.8362 21.7734C52.6956 21.8672 52.6018 22.0547 52.4846 22.1484C52.4143 22.2422 52.3206 22.2422 52.2268 22.3125L51.6409 23.0859C51.5706 23.1328 51.4768 23.1797 51.4299 23.2734C51.3596 23.3203 51.3362 23.4375 51.2659 23.5078C50.7034 24.2109 50.2815 24.8906 50.094 25.875C50.094 25.9453 50.094 26.0391 50.1174 26.1094C50.1409 26.2031 50.1409 26.2734 50.1409 26.3906C50.1409 26.5078 50.1409 26.6016 50.1643 26.6953C50.1877 26.8125 50.2112 26.9062 50.2815 27.0234L50.4221 27.4922C50.4456 27.5859 50.5627 27.6562 50.6096 27.7266C50.7034 27.9141 50.7034 28.0547 50.844 28.1484C50.844 28.3125 50.3752 28.5469 50.2346 28.6875C49.6721 29.0859 49.0393 29.5312 48.7581 30.1406L48.6409 30.3047C48.6174 30.3984 48.594 30.4922 48.594 30.6094L48.6174 30.7969C48.6409 30.9375 48.6877 31.0312 48.7346 31.125C48.9221 31.3125 49.2971 31.5703 49.5784 31.6172ZM55.6487 30.2578C55.9065 30.2578 56.1643 30.2109 56.4221 30.1406L56.6565 30.1172C57.7581 29.6719 58.5784 29.1562 59.469 28.5234C59.844 28.2422 60.1721 27.8906 60.5471 27.6328C60.8518 27.3984 61.1331 27.1406 61.4377 26.9297C61.6018 26.8125 61.7893 26.7656 61.9065 26.5781C61.9534 26.4844 62.0471 26.3203 62.0471 26.1328L62.0237 26.0156C61.9534 25.6641 61.6252 25.2891 61.2971 25.3594C61.1565 25.3594 61.0393 25.4062 60.8987 25.4766C60.7346 25.5703 60.6174 25.6875 60.5002 25.875C60.2659 26.0859 60.0784 26.2734 59.8909 26.4844C59.094 27.3047 58.0393 28.1719 56.8674 28.6406C56.6331 28.7344 56.0471 28.9453 55.6018 28.9453C55.4377 28.9453 55.2971 28.9219 55.1799 28.8516C54.969 28.7578 54.8987 28.5 54.8987 28.2188C54.8987 27.7969 55.0393 27.3047 55.1565 27.0938C55.2737 27.0938 55.344 27.1641 55.4612 27.1875H55.5784C55.7893 27.1875 56.2112 27.1172 56.3049 27.0938C56.4221 27.0469 56.4924 26.9531 56.5862 26.9062C56.6565 26.8594 56.7502 26.8828 56.8206 26.8359C57.1721 26.625 57.5706 26.3906 57.9221 26.1562C58.7424 25.6406 59.7737 25.0547 60.3362 24.2812C60.4299 24.2344 60.5002 24.1641 60.5706 24.0938C60.6643 23.9531 60.8752 23.5781 60.9221 23.4141L60.9456 23.2266C60.9456 23.1328 60.9221 23.0391 60.8987 22.9688L60.8752 22.6406C60.8752 22.5469 60.8752 22.4531 60.8284 22.3594C60.6643 21.9375 59.9846 21.6562 59.3518 21.6562C59.2112 21.7734 59.0002 21.75 58.8127 21.8203C58.4377 21.9844 58.0393 22.2422 57.7112 22.4766C56.6565 23.2266 55.6018 24.5156 54.8987 25.6406C54.7112 25.9219 54.6174 26.2266 54.4534 26.5312C54.1956 26.9766 53.8674 27.7969 53.8674 28.5469C53.8674 28.9219 53.9612 29.2734 54.1487 29.5547C54.4768 30 55.0159 30.2578 55.6487 30.2578ZM56.2581 25.3594H56.1877C56.2581 25.1953 56.3752 25.125 56.469 24.9844C56.8674 24.4688 57.4299 24.0234 57.9924 23.6719C58.2268 23.5078 58.6252 23.4844 58.8362 23.3203L58.9768 23.3438L58.9534 23.3672C58.9065 23.6484 58.5315 23.9531 58.344 24.0938L58.2971 24.1875C58.0393 24.4922 57.5471 24.7031 57.2424 24.8906C56.9612 25.0781 56.5159 25.1484 56.2581 25.3594ZM56.2815 51.7266C56.4456 51.7266 56.6096 51.6562 56.7268 51.5859C56.9377 51.4219 56.8909 51.0703 56.9846 50.7656C57.1018 50.3203 57.2424 49.875 57.4065 49.4531C58.344 47.0391 59.3284 44.6484 60.3831 42.375C60.6409 42.375 60.8752 42.4219 61.1096 42.4688C61.4612 42.5625 61.8596 42.5391 62.1877 42.6094H62.4456C62.7737 42.6797 63.2893 42.6797 63.594 42.75H63.969C64.1331 42.7969 64.3206 42.7969 64.4846 42.7969H64.9299C65.1174 42.7969 65.2815 42.7969 65.4456 42.8438L65.6565 42.8203C65.7268 42.8203 65.7971 42.8203 65.844 42.8438C66.0315 42.8438 66.1721 42.7969 66.3362 42.7969L66.5002 42.8203L66.9456 42.8438C67.4143 42.8438 68.0002 42.7969 68.2815 42.75C68.5393 42.7031 68.8206 42.7266 69.0549 42.6797H69.3362C69.5471 42.6328 69.8284 42.6562 70.0627 42.5859C70.8127 42.3984 71.5862 42.3516 72.3127 42.1406C73.4612 41.8125 74.6565 41.3906 75.5706 40.8047C75.6643 40.7812 75.7346 40.7578 75.8284 40.7109C76.3206 40.4062 76.7659 40.0547 77.2112 39.7031C77.3284 39.6328 77.5627 39.3516 77.6331 39.2344L77.9377 38.9766C78.1018 38.7188 78.3127 38.4844 78.4768 38.25C78.9456 37.4766 79.2034 36.6562 79.4612 35.6484V35.3672C79.5315 35.1094 79.5549 34.8047 79.5549 34.4766C79.5549 33.7031 79.3909 32.8594 79.2502 32.3438C79.1565 32.1094 79.1799 31.8984 79.1096 31.6875C78.6877 30.5859 78.3362 29.5078 77.8206 28.5234C77.3049 27.5391 76.719 26.5781 76.1096 25.6875C75.4768 24.7266 74.8674 23.7656 74.2112 22.8281C73.9534 22.4766 73.6252 22.125 73.3674 21.7734L72.1956 20.1797C72.0784 19.9922 71.8674 19.8516 71.7502 19.6641L71.3284 19.0547C71.2346 18.9375 71.094 18.8438 71.0002 18.7266C70.9299 18.6094 70.9065 18.5156 70.8127 18.4453C70.8127 18.0703 71.1877 17.4844 71.3284 17.1562L72.4299 14.6016L75.3362 7.66406C75.6174 6.96094 75.8284 6.21094 76.1096 5.50781C76.2034 5.32031 76.1799 5.15625 76.2502 4.94531C76.4143 4.38281 76.6018 3.63281 76.6018 2.95312C76.6018 2.48438 76.5315 2.03906 76.2971 1.66406C75.8987 1.00781 75.0784 0.75 74.0706 0.726562C73.9534 0.796875 73.2502 0.75 73.0627 0.796875C72.3127 0.984375 71.5862 1.10156 70.8831 1.33594C69.3831 1.80469 68.0002 2.46094 66.7346 3.1875C66.2659 3.44531 65.844 3.84375 65.4221 4.14844C65.3987 4.21875 65.3518 4.26562 65.3049 4.3125C64.6018 4.92188 64.0393 5.71875 63.6877 6.67969C63.6174 6.86719 63.6643 7.00781 63.594 7.21875C63.5237 7.45312 63.4768 7.82812 63.4768 8.17969C63.4768 8.39062 63.5002 8.57812 63.5471 8.74219C63.6643 9.28125 63.7581 9.84375 63.9456 10.3359C64.8127 12.6094 66.2893 14.3906 67.6018 16.2188L68.7268 17.7422L69.0315 18.0703C69.219 18.3516 69.4065 18.6562 69.6643 18.8906C69.6409 19.1719 69.5002 19.3594 69.4065 19.5469C69.1956 20.0625 69.0081 20.5547 68.7971 21.0234C68.1643 22.5234 67.5549 24.0469 66.9221 25.5234C65.4924 28.875 64.0862 32.2031 62.6096 35.5078C62.4221 35.9062 62.3049 36.3047 62.1174 36.7266C61.7893 37.4531 61.4143 38.2031 61.1096 38.9297C60.8284 39.5625 60.594 40.2188 60.2424 40.7812C59.9143 40.7812 59.5627 40.6875 59.2581 40.6172C59.0471 40.5469 58.8831 40.5938 58.6487 40.5234L57.8284 40.2891H57.6643C57.5237 40.2656 57.3127 40.1719 57.1721 40.1484C57.0784 40.125 57.0081 40.125 56.9143 40.125C55.9534 39.7969 54.8987 39.5625 53.9846 39.2109C53.5393 39.0469 53.1643 38.9766 52.7424 38.8359C52.6721 38.8125 52.6018 38.7422 52.5549 38.7188L52.2971 38.6719C51.9924 38.5312 51.6643 38.4141 51.3127 38.2969C51.1487 38.2266 50.9377 38.0859 50.7737 38.0156C50.3284 37.8281 49.9065 37.7109 49.4846 37.5C47.6565 36.6797 45.969 35.6719 44.3049 34.6875C44.2346 34.6641 44.1877 34.5469 44.1174 34.5234C44.0471 34.4766 43.9534 34.4766 43.8831 34.4297C43.719 34.3125 43.5315 34.125 43.344 33.9844C43.1565 33.8672 42.969 33.7734 42.7581 33.6328C42.594 33.5156 42.4299 33.3281 42.2659 33.2109C41.9143 32.9531 41.5862 32.6953 41.2112 32.4375L41.0706 32.2734C41.0002 32.2031 40.8831 32.1797 40.8127 32.1094C40.7424 32.0625 40.719 31.9453 40.6487 31.8984L40.0393 31.4297C39.9456 31.3594 39.8987 31.2188 39.8049 31.1484C39.5237 30.9375 39.3362 30.6797 39.1018 30.4688C38.7268 30.0938 38.3518 29.7422 38.0471 29.3203L37.7893 29.1094L37.6721 28.875C37.6018 28.7812 37.4846 28.7578 37.4377 28.6875C37.3674 28.5938 37.3206 28.4766 37.2502 28.3594L37.1096 28.2656C37.0627 28.1953 37.0393 28.125 37.0159 28.0547C36.9456 27.9609 36.8284 27.8906 36.7581 27.7969C36.7112 27.7266 36.7112 27.6328 36.6409 27.5625C36.594 27.4688 36.4768 27.4219 36.4299 27.3281C36.2893 27.1406 36.2424 26.9297 36.0549 26.7891C35.8206 26.6016 35.5393 26.5312 35.2815 26.5312C34.8362 26.5312 34.3909 26.7422 34.1799 27.1172C34.0627 27.3047 34.0159 27.5156 34.0159 27.7031C34.0159 28.1953 34.344 28.6875 34.5784 29.0156C35.2346 29.9297 35.9846 30.8906 36.8752 31.5703C36.9456 31.6172 36.969 31.7578 37.0627 31.8047C37.4377 32.1094 37.7659 32.4609 38.1877 32.7422L38.4221 33C39.1487 33.5156 39.8284 34.1016 40.5549 34.5938C41.5159 35.2266 42.4768 35.8359 43.4377 36.4219C43.5315 36.4688 43.6487 36.4688 43.7424 36.5391L44.6096 37.0781C44.7268 37.1484 44.844 37.1484 44.9612 37.2188C45.1487 37.3359 45.3831 37.4766 45.5706 37.5703L45.7112 37.5938C45.7581 37.6172 45.8049 37.7109 45.8752 37.7344C45.969 37.7578 46.0393 37.7578 46.1096 37.8047C46.1799 37.8281 46.2737 37.9219 46.344 37.9453C46.4143 37.9688 46.4846 37.9922 46.5549 37.9922C48.1018 38.8359 49.9065 39.4688 51.6409 40.1484C51.8518 40.2188 52.0159 40.2188 52.2268 40.2891C52.4846 40.4062 52.8362 40.5469 53.1174 40.6406C53.1877 40.6406 53.2581 40.6406 53.3284 40.6641C54.0549 40.9219 54.8987 41.1328 55.6721 41.3672C56.094 41.5078 56.5627 41.5312 56.9846 41.6719C57.3596 41.7891 57.8518 41.8828 58.2502 41.9766H58.4377C58.7659 42.0703 59.1877 42.1641 59.5862 42.2109V42.2344H59.6096C59.5862 42.5156 59.4221 42.7031 59.3284 42.9141L58.6721 44.3438C57.9221 46.0547 57.219 47.7656 56.3752 49.4062C56.1877 49.7812 56.094 50.1094 55.9299 50.4844C55.8596 50.625 55.7424 50.8125 55.6956 50.9531L55.6721 51.0938C55.6721 51.4219 55.9299 51.6328 56.1174 51.7031L56.2815 51.7266ZM70.2034 17.6016C70.0393 17.5547 69.8049 17.1328 69.7112 16.9922C69.2659 16.3828 68.7737 15.8203 68.3284 15.1875C68.0237 14.7656 67.6487 14.3438 67.3674 13.9219C66.5237 12.7266 65.7034 11.4609 65.1409 10.0078C64.9065 9.39844 64.7659 8.76562 64.7659 8.17969C64.7659 7.38281 64.9768 6.65625 65.4221 6C65.6331 5.69531 65.9377 5.36719 66.2424 5.15625L66.3831 4.96875C66.6643 4.75781 66.9456 4.52344 67.2268 4.33594C68.3518 3.58594 69.6643 3.09375 71.0471 2.57812C71.6096 2.39062 72.219 2.34375 72.8049 2.17969C72.9924 2.13281 73.4846 2.15625 73.6252 2.08594C74.0706 2.10938 74.7268 2.0625 74.9377 2.39062C75.0315 2.53125 75.0784 2.83594 75.0784 3.14062C75.0784 3.32812 75.0549 3.51562 75.0315 3.65625C74.8674 4.33594 74.7737 5.03906 74.5627 5.64844C74.4924 5.83594 74.5159 5.97656 74.4456 6.16406C73.4846 8.90625 72.6174 11.6484 71.5159 14.25C71.4456 14.4375 71.4221 14.6016 71.3518 14.8125L70.6487 16.5C70.4846 16.875 70.3909 17.25 70.2034 17.6016ZM66.219 41.3203L65.8909 41.2969L65.3284 41.3203L64.6721 41.2969C64.5315 41.2969 64.3909 41.2969 64.2737 41.2734C63.7112 41.1562 62.9612 41.2266 62.469 41.1094H62.1877C61.9534 41.0391 61.6252 41.0156 61.3909 40.9688H61.2268C61.1565 40.9688 61.1096 40.9453 61.0627 40.9219H61.0159C61.0393 40.6641 61.2034 40.4766 61.2971 40.2656L61.7424 39.2344C62.3049 37.9219 62.8674 36.6328 63.4534 35.3438C63.7815 34.5938 64.0627 33.8672 64.3909 33.0938C64.7659 32.2031 65.2346 31.2891 65.6096 30.3984C66.3831 28.5469 67.1331 26.7656 67.9534 24.9375C68.4924 23.6953 69.0081 22.4297 69.5706 21.1641L70.0159 20.1328C70.0862 19.9922 70.1799 19.8516 70.2268 19.6875H70.2971C70.344 19.875 70.5315 19.9922 70.6252 20.1328L71.1877 20.9531L71.3284 21.0469C72.0784 22.125 72.8752 23.1562 73.6252 24.2578C75.0549 26.3906 76.4377 28.6172 77.3518 31.2656C77.5393 31.8281 77.6331 32.4141 77.7737 33C77.8674 33.3281 77.7971 33.7031 77.8674 34.0078L77.8909 34.2656C77.8909 34.5 77.844 34.7812 77.8206 34.9453V35.1797C77.7971 35.3203 77.7268 35.5547 77.6799 35.6719C77.6799 35.7656 77.6799 35.8359 77.6565 35.9297C77.469 36.4688 77.2346 36.9141 76.9768 37.3359C75.8049 39.1875 73.6956 40.0781 71.3752 40.7344C71.0237 40.8516 70.6487 40.875 70.3206 40.9688H70.1096C70.0862 40.9688 69.969 41.0391 69.9221 41.0391C69.8284 41.0391 69.5706 41.0391 69.4065 41.0859C69.1018 41.1562 68.7034 41.1562 68.4221 41.2031C68.1174 41.2266 67.719 41.2969 67.3674 41.2969L66.9221 41.2734C66.7112 41.2734 66.4534 41.3203 66.219 41.3203ZM81.4534 30.5391C81.6174 30.5391 81.8284 30.4922 81.9456 30.4688L82.1799 30.4922C82.3909 30.4688 82.5081 30.375 82.6721 30.2812C82.7659 30.2109 82.9299 30.2344 83.0237 30.1641C83.1409 30.1172 83.1877 30 83.2815 29.9531C83.3518 29.8828 83.469 29.8594 83.5393 29.8125C83.6096 29.7891 83.6799 29.6719 83.7268 29.6016L83.9143 29.4609C83.9846 29.3906 84.0081 29.2969 84.0784 29.2266C84.1487 29.2266 84.1956 29.1797 84.2424 29.1328C84.6643 28.6406 85.0393 28.0547 85.3674 27.4922C85.6018 27.5391 85.8596 27.6328 86.0471 27.7266C86.1409 27.75 86.2112 27.75 86.3049 27.75L86.8674 27.6562H86.9612C87.2893 27.6562 87.4065 27.4453 87.7346 27.375C88.3674 27.1406 88.6721 26.9531 88.7893 26.2969C88.7893 26.0859 88.7424 25.8984 88.6956 25.7812C88.5315 25.4062 88.2268 25.2422 87.969 25.2422C87.8752 25.2422 87.8049 25.2656 87.7346 25.2891C87.3127 25.4531 87.4299 25.6641 86.7971 25.9453L86.6565 25.9219C86.469 25.9219 86.2815 25.9688 86.1409 25.9688H86.0706L86.094 25.9219C86.094 25.7578 86.1877 25.5703 86.2346 25.4297C86.3752 25.125 86.3049 24.7969 86.4221 24.4922L86.4456 24.0703C86.4456 23.8594 86.4221 23.6484 86.3987 23.5312C86.2346 22.6406 85.9065 21.8203 84.7581 21.7734C84.594 21.8672 84.4065 21.8672 84.2424 21.9141C84.1018 21.9609 83.7502 22.2891 83.6331 22.4297C83.5862 22.4766 83.6096 22.5469 83.5627 22.6172C83.5159 22.6875 83.3987 22.7812 83.3752 22.9219C83.2112 23.3438 83.1643 23.5547 83.1643 23.9766V24.1172C83.1643 25.125 83.6799 26.0625 84.219 26.6719C84.1956 26.9297 83.9612 27.0469 83.8206 27.2109C83.4221 27.6797 82.9768 28.0547 82.4143 28.3359C82.2268 28.3359 82.0393 28.4062 81.8518 28.4766L81.5471 28.4062V27.9375C81.594 27.0703 82.1565 26.7422 82.344 26.1094C82.3674 26.0391 82.4377 26.0156 82.4846 25.9688C82.5784 25.875 82.5549 25.7578 82.6252 25.6406C82.6487 25.5703 82.6956 25.5234 82.719 25.4766C82.8362 25.3125 82.8596 25.2188 82.8596 25.0547V25.0078C82.8596 24.4688 82.4377 24.2109 81.9924 24.0703H81.9456C81.3596 24.0703 81.0081 24.6328 80.8206 24.9844L80.7502 25.2656C80.5159 25.5703 80.3987 25.7109 80.3752 26.0859C80.0471 26.7656 79.8362 27.4453 79.7893 28.3828C79.7893 28.6875 79.7893 28.9922 79.9065 29.2969C79.9534 29.4844 80.1174 29.5781 80.2112 29.7188C80.2815 29.8125 80.2815 29.9531 80.3518 30.0234L80.7502 30.2812C81.2893 30.375 80.9612 30.4453 81.4534 30.5391ZM85.0393 25.1484C84.8987 25.1016 84.8518 24.8906 84.8049 24.7266C84.7112 24.4688 84.6643 24.1172 84.6643 23.7891C84.7112 23.5547 84.7815 23.3438 84.9221 23.1797C85.1565 23.3203 85.2268 23.7188 85.2268 24.1406C85.2034 24.4688 85.1331 24.5156 85.1096 24.8438C85.1096 25.0078 85.0393 25.0547 85.0393 25.1484ZM85.6956 35.7656C85.8596 35.7656 86.0002 35.7422 86.1409 35.7188C86.2581 35.7188 86.3752 35.7188 86.5159 35.6953C86.6799 35.6484 86.7971 35.5312 86.9143 35.4609C87.0081 35.4141 87.1018 35.4141 87.1956 35.3672C87.2893 35.2969 87.3362 35.1797 87.4299 35.1094C87.5002 35.0625 87.594 35.0625 87.6643 34.9922L87.8752 34.7344C88.4612 34.3125 89.0002 33.5625 89.4221 32.9531C89.469 32.9062 89.5393 32.8594 89.5862 32.7891C90.1721 31.9922 90.6877 31.1719 91.2268 30.3516C91.5549 29.8594 91.9299 29.4141 92.2346 28.8984C92.469 28.5 93.1487 27.3984 93.4065 27.0234L93.4768 26.8594C93.6174 26.6484 93.8284 26.4844 93.9221 26.25C93.969 26.1328 93.9924 26.0156 93.9924 25.9219C93.9924 25.7812 93.969 25.6875 93.9221 25.5938C93.8049 25.4062 93.5002 25.2422 93.219 25.2422C93.0784 25.2422 92.9377 25.2891 92.8206 25.3594C92.5627 25.5469 92.4924 25.8516 92.3049 26.1094C92.2581 26.1797 92.1643 26.25 92.1409 26.3203C91.8596 26.8125 91.0627 27.9141 90.7346 28.3594C90.6174 28.5234 90.5706 28.6875 90.4534 28.8516C89.9612 29.5547 89.3987 30.2344 88.9065 30.9375C88.8362 30.9609 88.7893 31.0078 88.7424 31.0312C88.4612 31.4297 88.1331 31.7578 87.8518 32.1328C87.7581 32.2734 87.5002 32.4375 87.3596 32.5781C87.3127 32.625 87.2893 32.7188 87.2424 32.7656C87.0784 32.9297 86.8909 33.0469 86.7268 33.1875L86.5862 33.3516C86.3987 33.4922 86.1174 33.6094 85.9768 33.7969H85.9299C85.9065 33.6797 85.9065 33.5625 85.9065 33.4453C85.9065 32.7656 86.1174 31.875 86.2581 31.4297C86.3752 31.0547 86.4221 30.7266 86.5393 30.375C86.9612 29.1094 87.3596 27.8203 87.8752 26.6484C88.0159 26.6719 88.1096 26.7422 88.2502 26.7656L88.3674 26.7891C88.6018 26.7891 88.7893 26.625 88.9065 26.5312C89.0002 26.4609 89.1409 26.4141 89.2581 26.3438C89.3752 26.25 89.4221 26.1094 89.5393 25.9688C89.5862 25.9219 89.6799 25.8984 89.7268 25.8281L89.844 25.5938L90.0315 25.4297C90.0784 25.3594 90.1018 25.2656 90.1487 25.1719C90.1956 25.1016 90.3127 25.0312 90.3596 24.9609C90.7112 24.4219 91.0159 23.8594 91.3674 23.3203C92.9143 21.0234 94.2268 18.5391 95.6799 16.125C95.7737 15.9609 95.7971 15.7969 95.8909 15.6328C96.2424 15.0703 96.5237 14.4375 96.8518 13.875C96.9924 13.6406 97.0627 13.4062 97.1799 13.1484C97.6487 12.2812 98.0706 11.3203 98.5393 10.4062C98.6565 10.1484 98.7268 9.89062 98.844 9.60938C99.1487 8.88281 99.5237 8.08594 99.7815 7.33594C99.9221 6.91406 100.016 6.51562 100.133 6.09375L100.156 5.95312C100.156 5.78906 100.11 5.625 100.063 5.50781C100.039 5.39062 100.039 5.27344 100.039 5.15625C99.8987 4.78125 99.5471 4.47656 99.0315 4.47656L98.7971 4.52344C98.5159 4.61719 98.1877 4.6875 97.9768 4.85156C97.9299 4.89844 97.9065 4.96875 97.8831 5.03906L97.6018 5.25C97.5549 5.34375 97.5315 5.4375 97.4612 5.53125L97.3206 5.67188C97.2502 5.74219 97.2502 5.83594 97.2034 5.90625C97.1565 5.97656 97.0862 6 97.0393 6.07031C96.9221 6.23438 96.8752 6.39844 96.7815 6.58594C95.8909 7.99219 95.1643 9.51562 94.3674 11.0156C91.6721 16.1719 89.1877 21.5156 86.844 27.0234C86.0471 28.8984 85.3674 30.8203 84.6877 32.8359C84.5706 33.1875 84.4768 33.7031 84.4768 34.1953C84.4768 34.5938 84.5471 34.9688 84.7112 35.2031C84.7815 35.3203 84.9221 35.3438 85.0393 35.4375C85.1565 35.5078 85.2502 35.6484 85.3909 35.7188C85.4846 35.7656 85.6018 35.7656 85.6956 35.7656ZM89.4456 23.1562C89.3987 23.1562 89.3987 23.1328 89.3987 23.1328V23.0859C89.3987 23.0391 89.4221 22.8984 89.469 22.8516C89.5627 22.6172 89.6565 22.3594 89.7737 22.125C90.2659 21.1641 90.6877 20.1328 91.2034 19.1719C91.4612 18.6562 91.6252 18.1641 91.8831 17.6484C92.7034 16.1016 93.5002 14.4844 94.3909 13.0078C94.7659 12.3516 95.0706 11.6719 95.469 11.0625C96.0081 10.2188 96.5471 9.35156 97.1331 8.53125C97.3206 8.27344 97.5549 8.01562 97.7424 7.73438C97.8127 7.61719 97.9534 7.59375 97.9768 7.42969H98.0237C97.7424 8.4375 97.4612 9.375 97.0627 10.2891C96.8518 10.8281 96.5471 11.3906 96.3127 11.9062C95.9377 12.75 95.5862 13.5938 95.1174 14.3438C95.0002 14.5078 94.9768 14.6719 94.8831 14.8359C94.6252 15.2578 94.4143 15.7031 94.1565 16.1484C94.1331 16.1953 94.0627 16.2422 94.0393 16.3125C93.8987 16.5469 93.8049 16.7812 93.6643 16.9922C93.4299 17.3906 93.1487 17.7891 92.9143 18.1641C92.2112 19.3125 91.4846 20.3672 90.7346 21.4688L90.6174 21.5625C90.4065 21.8438 90.2424 22.1016 90.0549 22.3828L89.8909 22.5234C89.7268 22.7109 89.6096 22.9453 89.4456 23.1328V23.1562ZM92.5862 30.3984C92.6565 30.3984 92.7268 30.3984 92.7971 30.375L92.9846 30.2812C93.1252 30.2344 93.2659 30.2578 93.3831 30.1875C93.5237 30.1172 93.7112 29.9766 93.8518 29.8828C93.8987 29.8359 93.8987 29.7656 93.9456 29.7422C94.6721 29.1562 95.3049 28.5 95.8674 27.75L96.0784 27.5625C96.2659 27.3047 96.4534 27.0938 96.6174 26.8594C96.6877 26.7891 96.7581 26.7891 96.8049 26.6953H96.8752C96.6877 27.1172 96.4534 27.9609 96.4534 28.6641C96.4534 28.9922 96.5002 29.2969 96.6409 29.5078C96.8518 29.8359 97.0393 29.8125 97.3674 29.9766C97.5081 30.0469 97.6721 30.1875 97.9065 30.1875L98.094 30.1641C99.3127 29.8594 99.9924 28.8281 100.906 28.1719C101.047 28.0781 101.164 27.8672 101.328 27.7734L101.891 27.2344L102.078 27C102.289 26.8594 102.547 26.7188 102.688 26.5078C102.735 26.4141 102.828 26.2031 102.828 26.0156L102.805 25.8984C102.711 25.5703 102.36 25.2656 101.985 25.2656C101.844 25.2656 101.703 25.3125 101.563 25.4062L101.352 25.6641C101.164 25.7812 101.024 25.9922 100.836 26.1094C100.274 26.5078 99.969 26.8594 99.4299 27.3281C99.1956 27.5156 98.7737 27.8203 98.5159 27.9609C98.5627 27.5156 98.7971 27.1172 98.9377 26.7656C99.0315 26.5547 99.0784 26.3906 99.1721 26.1562C99.1956 26.0625 99.3127 25.9922 99.3596 25.8984L99.3831 25.6875C99.7112 25.125 100.063 24.6094 100.321 23.9766C100.344 23.8828 100.461 23.8125 100.485 23.7188C100.555 23.5547 100.531 23.4141 100.578 23.2031C100.625 23.0391 100.649 22.875 100.649 22.7344C100.649 22.4297 100.531 22.1719 100.25 21.9844C100.11 21.8906 99.8987 21.8438 99.7112 21.8438C99.4065 21.8438 99.1252 21.9375 98.9612 22.125C98.8909 22.2188 98.8674 22.3125 98.7971 22.4062C98.7268 22.5234 98.5627 22.5938 98.4924 22.7109L98.4221 22.8984C98.3752 22.9922 98.2581 23.0859 98.2112 23.1562C98.1877 23.2031 98.1877 23.25 98.1877 23.2734L97.9299 23.5547C97.8596 23.6484 97.8362 23.7656 97.7424 23.8594C97.6721 23.9766 97.4846 24.0938 97.4143 24.2109L97.3909 24.3047C97.344 24.375 97.1565 24.5156 97.1096 24.5859C96.8049 24.9844 96.4768 25.3125 96.1721 25.7109C96.0784 25.8281 95.9143 25.8984 95.844 25.9922C95.5862 26.3438 95.2581 26.6719 94.9299 26.9297C94.8831 26.9531 94.8831 27.0234 94.8596 27.0703C94.7659 27.1875 94.5784 27.2812 94.4612 27.375C94.4143 27.3984 94.4143 27.4688 94.3674 27.5156C94.3206 27.5391 94.2737 27.5391 94.2268 27.5859L94.1565 27.6797C94.0159 27.7969 93.8987 27.8672 93.7581 27.9609L93.6409 28.125C93.4768 28.2188 93.2893 28.2891 93.1721 28.4062H93.1487C93.1487 27.9609 93.4065 27.6094 93.5706 27.2812C93.969 26.4141 94.4377 25.6406 94.9768 24.8906L95.1409 24.7734L95.5393 24.1641C95.6096 24.0703 95.7268 24.0234 95.7737 23.9297C95.8674 23.7891 95.844 23.6719 95.9143 23.4609L96.0315 23.0156C96.0315 22.6172 95.6799 22.2656 95.4456 22.1719C95.3284 22.125 95.2346 22.1016 95.1174 22.1016C94.6252 22.1016 94.2034 22.5703 94.0159 22.8516C93.9456 22.9453 93.969 23.0625 93.8987 23.1562C93.594 23.6719 93.3596 24.2109 93.1252 24.7969C92.9846 25.0547 92.7737 25.3359 92.6565 25.6172L92.0471 27.0703C91.9534 27.2578 91.8127 27.4922 91.7424 27.6797C91.6252 28.0312 91.4377 28.6406 91.4377 29.1562C91.4377 29.3906 91.4612 29.625 91.5784 29.7891C91.6721 29.9062 91.8127 29.9531 91.9299 30.0469C92.094 30.2109 92.2815 30.3984 92.5862 30.3984ZM100.11 31.5703L100.203 31.3359C100.344 30.9609 100.508 30.5625 100.672 30.1641C100.789 29.8594 100.953 29.4844 101.117 29.0625C101.141 28.9922 101.164 28.9453 101.164 28.875C101.188 28.8047 101.211 28.7578 101.235 28.6875C101.375 28.3828 101.516 28.0781 101.633 27.75C101.75 27.4688 101.867 27.1875 101.985 26.9062C102.172 26.4844 102.36 26.0625 102.547 25.6172C102.969 24.6562 103.367 23.6953 103.766 22.7109L104.281 21.5859C104.539 21.0938 104.75 20.6016 104.961 20.1094C105.102 19.7812 105.266 19.4297 105.406 19.1016L105.875 19.125H106.227C106.367 19.1016 106.508 19.0781 106.672 19.0781L107.399 19.1016L111.008 19.1953L111.571 19.2188C111.711 19.2188 111.828 19.2188 111.946 19.1953H112.086C112.203 19.1953 112.344 19.1953 112.508 19.1953C112.672 19.2188 112.789 19.2188 112.883 19.2422C112.906 19.2422 112.953 19.2422 112.977 19.2422C113 19.2422 113.024 19.2422 113.047 19.2188C113.117 19.2422 113.211 19.2422 113.305 19.2422L113.656 19.2188H113.727C114.149 19.2422 114.594 19.2656 115.039 19.2656H115.696L116.328 19.2422L116.797 19.2891C116.891 19.3125 117.008 19.3125 117.125 19.3125L117.641 19.2891L117.828 19.3125L118.93 19.3594H119.305C119.446 19.3594 119.563 19.3594 119.656 19.3828L120.547 19.4766C120.688 19.5 120.828 19.5234 120.946 19.5234C121.297 19.5234 121.555 19.3828 121.672 19.0781V19.0312C121.696 18.8906 121.696 18.7969 121.696 18.7266C121.672 18.6562 121.672 18.6328 121.649 18.6094V18.5859C121.555 18.3281 121.367 18.2109 121.063 18.2109L120.617 18.2344H120.336L120.102 18.2578L119.024 18.375L117.477 18.3984H116.703L116.164 18.4453L115.297 18.4219H114.781C114.617 18.4453 114.406 18.4688 114.196 18.4688L113.188 18.4219C112.508 18.3984 111.641 18.375 110.586 18.375C109.25 18.3281 107.891 18.2812 106.508 18.2109H106.438C106.25 18.1875 106.063 18.1641 105.852 18.1641C106.578 16.5703 107.352 15.0234 108.125 13.5C108.149 13.3828 108.149 13.3125 108.172 13.2656C108.196 13.2188 108.196 13.1719 108.219 13.1484C108.219 13.125 108.219 13.125 108.242 13.1016C108.266 13.0781 108.289 13.0312 108.313 12.9844C108.336 12.9609 108.383 12.8906 108.406 12.8203C108.43 12.7734 108.43 12.7266 108.43 12.6797C108.594 12.4219 108.758 12.1641 108.875 11.9062C108.899 11.8594 108.922 11.8125 108.899 11.7656C109.18 11.3203 109.414 10.875 109.578 10.3828C109.625 10.2188 109.649 10.0547 109.672 9.89062C109.672 9.67969 109.602 9.49219 109.485 9.32812C109.367 9.1875 109.156 9.11719 108.852 9.11719C108.781 9.16406 108.711 9.1875 108.641 9.21094C108.524 9.23438 108.43 9.30469 108.336 9.375C108.149 9.67969 108.008 10.0078 107.891 10.4062C107.844 10.5469 107.797 10.6875 107.75 10.8047C107.563 11.25 107.352 11.7188 107.141 12.1875C107.047 12.4453 106.953 12.6797 106.836 12.9141C106.813 12.9844 106.789 13.0547 106.789 13.125C106.766 13.1953 106.719 13.2891 106.696 13.4062L106.367 14.0859C106.344 14.1562 106.321 14.2266 106.297 14.2969C106.274 14.3672 106.25 14.4375 106.227 14.5078C106.063 14.8594 105.899 15.2578 105.758 15.6562L105.477 16.3594C105.453 16.4062 105.43 16.4531 105.383 16.5234C105.36 16.5703 105.336 16.6172 105.313 16.6641C105.242 16.8047 105.172 16.9453 105.149 17.0859C105.125 17.1562 105.102 17.25 105.078 17.3203L104.727 18.1641H104.422L104.235 18.1406L103.742 18.1641C103.649 18.1641 103.555 18.1641 103.461 18.1406L102.992 18.1641L102.828 18.1406L99.969 18.0938L99.4768 18.1172C99.3596 18.1172 99.219 18.1172 99.1018 18.0938L98.9377 18.1406L98.6799 18.1172H98.2112C98.0471 18.1172 97.9065 18.1172 97.7893 18.1406C97.5784 18.1875 97.344 18.2109 97.0862 18.2109C96.8284 18.2344 96.594 18.2578 96.3831 18.3047C95.9377 18.3984 95.5393 18.5391 95.1877 18.75C94.8362 18.9609 94.5784 19.2891 94.4377 19.6875C94.4143 19.7344 94.4143 19.8047 94.4143 19.9219C94.3909 20.0391 94.3909 20.1328 94.3909 20.25C94.3909 20.3906 94.3909 20.5078 94.4143 20.5781L94.5081 20.7422C94.5315 20.7891 94.5315 20.8359 94.5315 20.8828C94.5081 20.9297 94.5315 20.9766 94.5549 21.0469C94.5784 21.0938 94.6018 21.1406 94.6252 21.1875C94.6487 21.2109 94.6721 21.2578 94.6956 21.2812L94.7659 21.5156C94.8362 21.6328 94.9299 21.7734 95.0471 21.9141L95.1877 22.1016C95.2112 22.1484 95.2112 22.1953 95.2112 22.2188C95.2346 22.2656 95.2346 22.3125 95.2581 22.3359L95.3049 22.3828C95.3518 22.4062 95.3752 22.4531 95.3987 22.4766L95.8674 23.2266C96.4534 24.0938 96.9924 24.9844 97.4846 25.9453C97.719 26.4844 97.9065 27.0234 98.0471 27.6094L98.2346 28.2188V28.4766L98.3284 28.9453V29.2969C98.3518 29.4609 98.3752 29.625 98.3752 29.8359C98.3752 30.1875 98.3518 30.5156 98.2815 30.8438V31.1016C98.2112 31.3359 98.1643 31.5703 98.1409 31.8047C98.0706 32.1094 98.0002 32.4141 97.9299 32.6953C97.9065 32.7188 97.9065 32.7188 97.9065 32.7188C97.8831 32.7422 97.8831 32.7422 97.8596 32.7656C97.8362 32.7891 97.8362 32.7891 97.8362 32.8125L97.7893 33.0938C97.7659 33.1875 97.719 33.2812 97.6487 33.3984C97.5784 33.5156 97.5315 33.6094 97.5081 33.7031C97.4846 33.7969 97.4612 33.8672 97.4377 33.9375C97.4143 34.0078 97.3909 34.1016 97.3674 34.1953L97.2737 34.3828C97.1799 34.5234 97.1096 34.6641 97.0627 34.8047L97.0159 35.0391C97.0159 35.25 97.1096 35.4375 97.2737 35.5547C97.4377 35.6953 97.6018 35.7891 97.7893 35.8125H97.8831C98.094 35.8125 98.3049 35.7188 98.469 35.5078C98.6331 35.3203 98.7737 35.1562 98.844 34.9922C99.2424 34.4062 99.5471 33.7266 99.7815 32.9766C99.8518 32.6953 99.9221 32.4141 99.9924 32.1328C100.016 31.9688 100.063 31.7812 100.11 31.5938V31.5703ZM100.156 28.7344V28.5938L100.063 28.125C99.9924 27.7266 99.8987 27.375 99.7815 27.0703C99.7346 26.9531 99.7112 26.8125 99.6877 26.6719C99.6643 26.5547 99.6174 26.4141 99.5706 26.2969C99.5471 26.2734 99.5237 26.2266 99.5002 26.1797C99.4768 26.1328 99.4534 26.0859 99.4299 26.0625L99.0315 25.0547C99.0081 25.0312 98.9846 25.0078 98.9612 24.9844C98.9377 24.9609 98.9143 24.9141 98.8909 24.8672C98.8674 24.8203 98.844 24.7734 98.8206 24.7031C98.7971 24.6328 98.7737 24.5859 98.7502 24.5391L98.7034 24.4453C98.6096 24.3281 98.5393 24.2109 98.469 24.0938C98.3987 23.9766 98.3284 23.8594 98.2815 23.7422C98.2581 23.6719 98.2112 23.5781 98.1643 23.5078C98.1409 23.4844 98.1174 23.4375 98.094 23.3906C98.0471 23.3672 98.0237 23.3203 98.0002 23.2969C97.9299 23.1797 97.8596 23.0859 97.8127 22.9922C97.7893 22.9219 97.7424 22.8281 97.6956 22.7578L97.6487 22.7109C97.6018 22.6875 97.5549 22.6406 97.5315 22.5938L97.4612 22.4297C97.3674 22.2656 97.2502 22.1016 97.1331 21.9375C97.0159 21.8203 96.9221 21.6797 96.8518 21.5391L96.7815 21.375L96.594 21.0938C96.4768 20.9297 96.3596 20.7422 96.2659 20.5781C96.2424 20.5312 96.219 20.4844 96.1956 20.4141C96.1721 20.3672 96.1487 20.3203 96.1252 20.2734C96.1252 20.1094 96.1721 20.0156 96.2659 19.9688C96.3362 19.9219 96.4534 19.875 96.5706 19.8516L96.7112 19.8047C96.8752 19.7578 97.0627 19.7109 97.2502 19.6641C97.4143 19.6406 97.5549 19.5938 97.719 19.5469L98.2112 19.5C98.5862 19.4297 98.9846 19.3828 99.4065 19.3594C99.6877 19.3359 99.969 19.2891 100.227 19.2656H100.602L100.977 19.2188H101.446L102.125 19.1953C102.266 19.1953 102.406 19.1953 102.524 19.1719H103.602C103.836 19.1719 104.094 19.1719 104.328 19.1484L104.305 19.1719C103.578 20.8828 102.852 22.6172 102.078 24.3281C101.492 25.6406 100.93 26.9531 100.367 28.2656L100.156 28.7344ZM107.328 21.6562L107.516 21.6094C107.985 21.4922 108.406 21.0469 108.383 20.5312C108.383 20.3438 108.313 20.1562 108.196 19.9453C107.985 19.6406 107.68 19.5 107.164 19.5234H107.071C107 19.5703 106.93 19.5469 106.86 19.5938C106.578 19.7344 106.367 19.9922 106.274 20.2969C106.25 20.3906 106.227 20.5078 106.227 20.6016C106.25 21.1641 106.766 21.6562 107.328 21.6562ZM104.375 30.4453C104.563 30.4219 104.75 30.2812 104.867 30.2578L105.102 30.1875C105.336 30.0938 105.524 29.9062 105.711 29.7656L106.391 29.0625L108.43 26.5781C108.594 26.4609 108.805 26.3438 108.899 26.1328C108.922 26.0625 108.946 25.9453 108.922 25.8516L108.899 25.6641C108.805 25.4531 108.524 25.2656 108.242 25.2656C108.149 25.2656 108.031 25.3125 107.938 25.3828C107.797 25.4766 107.703 25.6875 107.586 25.8047L107.492 25.8281C107.375 25.9219 107.305 26.1094 107.188 26.2031C106.883 26.4609 106.719 26.8125 105.828 27.6797C105.43 28.1953 104.985 28.3125 104.75 28.5234C104.703 28.5234 104.703 28.5234 104.68 28.5V28.4297C104.68 28.3359 104.75 28.1484 104.797 28.0781C104.891 27.7031 105.008 27.3984 105.125 27.1172C105.172 27.0234 105.149 26.9531 105.196 26.8594C105.36 26.4844 105.594 26.0625 105.805 25.7109C105.852 25.6406 105.852 25.5469 105.899 25.4766L106.719 24.1641C106.789 24.0469 106.766 23.9297 106.836 23.7891L107.024 23.5781C107.094 23.4141 107.117 23.2734 107.117 23.1328C107.094 22.5469 106.531 22.125 105.922 22.1484H105.899C105.758 22.2422 105.571 22.2422 105.43 22.3359C105.242 22.4766 105.219 22.6875 105.102 22.875C105.055 22.9453 104.938 23.0156 104.891 23.1094C104.844 23.1797 104.844 23.2969 104.821 23.3906C104.774 23.5078 104.68 23.625 104.633 23.7422C104.61 23.7891 104.61 23.8359 104.61 23.8828C104.071 25.2188 103.555 26.5547 103.039 27.9141L103.016 28.2188C102.946 28.3594 102.828 28.7812 102.852 29.0625V29.1797C102.992 29.625 103.18 30.1172 103.578 30.2578C103.696 30.3047 103.813 30.2812 103.953 30.3281C104.047 30.3516 104.164 30.4219 104.281 30.4219L104.375 30.4453ZM108.828 30.5391C108.992 30.5391 109.203 30.4922 109.321 30.4688L109.555 30.4922C109.766 30.4688 109.883 30.375 110.047 30.2812C110.141 30.2109 110.305 30.2344 110.399 30.1641C110.516 30.1172 110.563 30 110.656 29.9531C110.727 29.8828 110.844 29.8594 110.914 29.8125C110.985 29.7891 111.055 29.6719 111.102 29.6016L111.289 29.4609C111.36 29.3906 111.383 29.2969 111.453 29.2266C111.524 29.2266 111.571 29.1797 111.617 29.1328C112.039 28.6406 112.414 28.0547 112.742 27.4922C112.977 27.5391 113.235 27.6328 113.422 27.7266C113.516 27.75 113.586 27.75 113.68 27.75L114.242 27.6562H114.336C114.664 27.6562 114.781 27.4453 115.11 27.375C115.742 27.1406 116.047 26.9531 116.164 26.2969C116.164 26.0859 116.117 25.8984 116.071 25.7812C115.906 25.4062 115.602 25.2422 115.344 25.2422C115.25 25.2422 115.18 25.2656 115.11 25.2891C114.688 25.4531 114.805 25.6641 114.172 25.9453L114.031 25.9219C113.844 25.9219 113.656 25.9688 113.516 25.9688H113.446L113.469 25.9219C113.469 25.7578 113.563 25.5703 113.61 25.4297C113.75 25.125 113.68 24.7969 113.797 24.4922L113.821 24.0703C113.821 23.8594 113.797 23.6484 113.774 23.5312C113.61 22.6406 113.281 21.8203 112.133 21.7734C111.969 21.8672 111.781 21.8672 111.617 21.9141C111.477 21.9609 111.125 22.2891 111.008 22.4297C110.961 22.4766 110.985 22.5469 110.938 22.6172C110.891 22.6875 110.774 22.7812 110.75 22.9219C110.586 23.3438 110.539 23.5547 110.539 23.9766V24.1172C110.539 25.125 111.055 26.0625 111.594 26.6719C111.571 26.9297 111.336 27.0469 111.196 27.2109C110.797 27.6797 110.352 28.0547 109.789 28.3359C109.602 28.3359 109.414 28.4062 109.227 28.4766L108.922 28.4062V27.9375C108.969 27.0703 109.531 26.7422 109.719 26.1094C109.742 26.0391 109.813 26.0156 109.86 25.9688C109.953 25.875 109.93 25.7578 110 25.6406C110.024 25.5703 110.071 25.5234 110.094 25.4766C110.211 25.3125 110.235 25.2188 110.235 25.0547V25.0078C110.235 24.4688 109.813 24.2109 109.367 24.0703H109.321C108.735 24.0703 108.383 24.6328 108.196 24.9844L108.125 25.2656C107.891 25.5703 107.774 25.7109 107.75 26.0859C107.422 26.7656 107.211 27.4453 107.164 28.3828C107.164 28.6875 107.164 28.9922 107.281 29.2969C107.328 29.4844 107.492 29.5781 107.586 29.7188C107.656 29.8125 107.656 29.9531 107.727 30.0234L108.125 30.2812C108.664 30.375 108.336 30.4453 108.828 30.5391ZM112.414 25.1484C112.274 25.1016 112.227 24.8906 112.18 24.7266C112.086 24.4688 112.039 24.1172 112.039 23.7891C112.086 23.5547 112.156 23.3438 112.297 23.1797C112.531 23.3203 112.602 23.7188 112.602 24.1406C112.578 24.4688 112.508 24.5156 112.485 24.8438C112.485 25.0078 112.414 25.0547 112.414 25.1484ZM114.102 30.5156C114.5 30.4922 114.875 30.2812 115.016 30.0469C115.086 29.8828 115.063 29.7656 115.133 29.6016C115.203 29.3672 115.391 28.9688 115.531 28.7344C115.789 28.3125 116.094 27.8906 116.399 27.4453C116.492 27.2812 116.703 27.0938 116.844 26.9297C117.078 26.5781 117.406 26.1797 117.735 25.8984C117.992 25.6875 118.156 25.3828 118.414 25.1719C118.836 24.7969 119.258 24.4219 119.703 24.0938C119.938 23.9531 120.219 23.8594 120.406 23.6953C120.477 23.7188 120.453 23.6953 120.5 23.7422C120.5 23.8594 120.406 24.0234 120.383 24.0938C120.266 24.4688 120.149 24.8203 119.985 25.1953C119.75 25.7109 119.563 26.25 119.305 26.7656C119.164 27.1172 118.953 27.4688 118.813 27.8438C118.696 28.125 118.742 28.2188 118.555 28.4766C118.485 28.7344 118.414 29.0391 118.414 29.3203V29.4375C118.414 29.6484 118.461 29.8359 118.602 29.9766C118.696 30.1172 118.86 30.1406 119 30.2109C119.141 30.3047 119.352 30.4219 119.586 30.4219L119.821 30.375C119.938 30.3281 120.055 30.2344 120.125 30.1875L120.406 30.0703C120.477 30.0234 120.524 29.9297 120.571 29.8828C120.946 29.5781 121.297 29.2734 121.649 28.9453L121.742 28.7812C122.117 28.4766 122.375 28.1016 122.68 27.8203C122.891 27.6094 123.078 27.4688 123.289 27.2812C123.336 27.2344 123.36 27.1875 123.383 27.1406C123.641 26.8594 124.367 26.5078 124.367 25.9688V25.9453C124.344 25.8516 124.321 25.7344 124.274 25.6406C124.156 25.3594 123.828 25.1484 123.477 25.1484C123.36 25.1719 123.219 25.2188 123.078 25.3125C122.985 25.3828 122.914 25.5 122.844 25.6172L122.633 25.8047C122.492 26.0391 122.305 26.2969 122.094 26.4609C121.719 26.7891 121.438 27.2109 121.016 27.5391C120.781 27.7266 120.453 27.9141 120.266 28.125H120.219C120.313 27.7031 120.571 27.2812 120.735 26.8828L121.672 24.5391C121.766 24.3281 121.836 23.9766 121.836 23.625V23.4844C121.836 23.2734 121.789 23.0625 121.696 22.9453C121.485 22.6406 121.18 22.5234 120.875 22.5234H120.805C120.547 22.5234 120.266 22.6406 119.985 22.8047C119.352 23.1562 118.86 23.6719 118.321 24.1406L117.547 24.7969L117.219 25.1719C117.008 25.3594 116.797 25.5469 116.61 25.7578H116.563C116.586 25.5234 116.938 25.0781 117.078 24.8906C117.289 24.6094 117.313 24.4453 117.524 24.1641C117.594 24.0938 117.594 24 117.641 23.9062C117.781 23.6953 118.016 23.4141 118.086 23.1562C118.133 23.0156 118.156 22.8984 118.156 22.7812C118.11 22.2891 117.664 21.9609 117.289 21.8906L116.961 21.9141C116.797 22.0312 116.586 22.0312 116.469 22.1719C116.235 22.4062 116.164 22.7812 116.047 23.1328L115.883 23.3438C115.719 23.8125 115.578 24.2109 115.391 24.6094L114.5 26.5781C114.008 27.3281 114.219 27 113.867 27.8203C113.844 27.8672 113.75 27.9375 113.703 27.9844C113.703 28.0547 113.68 28.1016 113.656 28.1719C113.516 28.4531 113.305 28.7344 113.141 29.0391C113.047 29.2031 113.024 29.3672 113.024 29.5312C113.047 29.9062 113.328 30.2578 113.633 30.4219C113.774 30.4922 113.938 30.5156 114.102 30.5156Z" fill="#222127"/>
</svg>
