<svg width="278" height="252" viewBox="0 0 278 252" fill="none" xmlns="http://www.w3.org/2000/svg">
<path d="M77.6603 3.84558C74.5302 5.53517 71.4847 7.35401 68.5238 9.30209C65.5629 11.2502 62.696 13.3322 59.9231 15.5482C59.5706 15.8196 59.2181 16.1016 58.8868 16.3836L57.8575 17.2225L56.8424 18.0825C56.4899 18.3681 56.1656 18.6536 55.8342 18.9497L54.8332 19.8274C54.4983 20.1164 54.1776 20.4195 53.8462 20.7156C53.5149 21.0117 53.1906 21.3113 52.8663 21.6145L51.9005 22.5274C49.3273 24.9631 46.874 27.5257 44.53 30.1834C35.1416 40.8267 27.7159 53.0512 22.5982 66.2887L22.1259 67.526C21.9708 67.9384 21.8227 68.3578 21.6712 68.7702C21.5196 69.1826 21.368 69.6021 21.227 70.0216L20.797 71.2729C20.6525 71.6924 20.5185 72.1118 20.3846 72.5348L19.9792 73.7967L19.6021 75.0798C19.4752 75.5063 19.3412 75.9257 19.2284 76.3522C18.2603 79.7502 17.4378 83.1834 16.761 86.6519C15.434 93.5887 14.7262 100.63 14.6461 107.692C14.6108 111.217 14.7166 114.742 14.9986 118.267C15.2806 121.791 15.7036 125.285 16.2711 128.76C19.7214 149.706 28.7527 169.334 42.4151 185.581C44.678 188.272 47.0526 190.857 49.5388 193.336C52.025 195.815 54.6099 198.179 57.2935 200.428C59.9865 202.674 62.7747 204.8 65.6581 206.804L66.1974 207.181L66.7402 207.534L67.8329 208.267L68.1043 208.45L68.3793 208.627L68.9327 208.979L70.0395 209.684C70.7832 210.142 71.527 210.611 72.2778 211.062L73.4093 211.729L73.9732 212.081L74.5443 212.405C80.628 215.882 87.0099 218.808 93.6138 221.151C96.9037 222.326 100.249 223.347 103.649 224.214C104.069 224.33 104.495 224.429 104.922 224.531L106.194 224.841C107.047 225.038 107.9 225.218 108.757 225.409L111.407 226.018L111.739 226.092L112.067 226.181L112.726 226.357L114.04 226.709C117.537 227.684 120.968 228.877 124.315 230.28L125.57 230.816L126.194 231.084L126.811 231.373L128.045 231.954L128.662 232.243L128.968 232.388L129.271 232.543L131.693 233.791L134.072 235.123C140.368 238.785 146.18 243.221 151.372 248.327C151.581 248.519 151.75 248.751 151.867 249.01C151.985 249.268 152.049 249.548 152.056 249.831C152.063 250.115 152.013 250.397 151.909 250.661C151.805 250.925 151.649 251.166 151.45 251.368C151.251 251.57 151.013 251.731 150.751 251.839C150.488 251.948 150.207 252.002 149.923 252C149.639 251.997 149.359 251.938 149.099 251.825C148.838 251.711 148.603 251.547 148.408 251.341C143.523 246.418 138.04 242.127 132.088 238.567L129.832 237.224L127.537 236.004L127.248 235.853L126.956 235.712L126.37 235.426L125.2 234.859L124.615 234.577L124.023 234.312L122.832 233.787C119.647 232.411 116.38 231.233 113.05 230.262L111.795 229.91L111.168 229.734L110.854 229.645L110.537 229.571L108.006 228.958C107.132 228.75 106.243 228.553 105.376 228.338L104.065 227.985C103.632 227.876 103.194 227.767 102.761 227.633C99.283 226.693 95.8521 225.598 92.4683 224.348C85.7058 221.86 79.1788 218.774 72.9651 215.127L72.3835 214.774L71.809 214.422L70.6563 213.717C69.8879 213.244 69.1336 212.754 68.3757 212.275L67.2513 211.531L66.6873 211.158L66.4089 210.974L66.1304 210.78L65.0201 210.015L64.4667 209.631L63.9203 209.24C60.9947 207.151 58.1642 204.937 55.4289 202.599C52.6936 200.269 50.0746 197.805 47.5614 195.239C45.0481 192.673 42.6512 190.019 40.3847 187.245C31.266 176.125 24.2118 163.463 19.5562 149.856C17.2381 143.073 15.53 136.097 14.4522 129.01C13.9094 125.485 13.5228 121.932 13.2925 118.351C13.0599 114.78 12.9965 111.203 13.0775 107.632C13.2436 100.485 14.0458 93.3674 15.4744 86.3629C16.1959 82.8686 17.0677 79.4095 18.0899 75.9856C18.2133 75.5556 18.3507 75.1326 18.4847 74.7061L18.8865 73.4301L19.3095 72.1612C19.447 71.7382 19.588 71.3152 19.7431 70.8957L20.1872 69.6374C20.3352 69.2144 20.4974 68.7984 20.6525 68.3825C20.8076 67.9666 20.9627 67.5471 21.1248 67.1312L21.6183 65.8869C26.9292 52.6319 34.5493 40.4241 44.1246 29.831C46.5286 27.1943 48.996 24.6494 51.6185 22.2384L52.5984 21.336C52.9262 21.0364 53.2611 20.7438 53.5924 20.4477C53.9238 20.1516 54.2551 19.852 54.5935 19.5665L55.6087 18.6994C55.9611 18.4068 56.2854 18.1248 56.6309 17.8429L57.6566 16.9934L58.7141 16.165C59.0666 15.8865 59.419 15.6081 59.7715 15.3402C62.5914 13.1689 65.4854 11.1103 68.478 9.19281C71.4706 7.27528 74.5161 5.49522 77.6603 3.84558Z" fill="#747474"/>
<path d="M56.7084 0C52.757 2.2242 48.9536 9.84145 47.8257 13.8915C46.6977 17.9416 48.224 18.4245 50.4517 22.3794C54.4031 20.1517 55.9646 20.5359 57.0961 16.4858C58.2276 12.4358 58.9361 3.95491 56.7084 0Z" fill="#747474"/>
<path d="M77.7731 18.0507C75.0801 21.699 67.0434 24.5189 62.8841 25.1428C58.7247 25.7667 58.4392 24.184 54.7769 21.484C57.4769 17.8357 57.2901 16.2425 61.4494 15.6221C65.6088 15.0017 74.1249 15.3507 77.7731 18.0507Z" fill="#747474"/>
<path d="M85.3024 1.02932C83.9312 5.35786 77.2516 10.6311 73.5187 12.5662C69.7859 14.5014 69.0033 13.1055 64.6748 11.7344C66.0601 7.40229 65.3657 5.96062 69.0879 4.02546C72.8102 2.09031 80.9879 -0.352431 85.3024 1.02932Z" fill="#747474"/>
<path d="M35.5065 18.4738C32.1014 21.4699 29.9618 29.7111 29.708 33.9092C29.4542 38.1073 31.0404 38.2589 34.0366 41.6639C37.4416 38.6642 39.049 38.7136 39.3239 34.5155C39.5988 30.3173 38.5061 21.8788 35.5065 18.4738Z" fill="#747474"/>
<path d="M59.8633 31.7485C57.981 35.8797 50.6986 40.3069 46.7754 41.7803C42.8522 43.2537 42.2248 41.7803 38.0972 39.8875C39.9795 35.7563 39.4648 34.2477 43.4056 32.7637C47.3464 31.2797 55.7356 29.8662 59.8633 31.7485Z" fill="#747474"/>
<path d="M18.6116 40.9482C15.9045 44.5894 15.5344 53.095 16.1442 57.2543C16.754 61.4137 18.3508 61.2304 21.9955 63.9516C24.7026 60.3104 26.2818 60.0249 25.6684 55.8655C25.0551 51.7062 22.2528 43.6553 18.6116 40.9482Z" fill="#747474"/>
<path d="M45.1925 48.8725C44.2126 53.3033 38.0229 59.1475 34.4769 61.407C30.9309 63.6664 30.025 62.341 25.5942 61.3576C26.5777 56.9268 25.7599 55.5451 29.3059 53.2856C32.852 51.0262 40.7653 47.8891 45.1925 48.8725Z" fill="#747474"/>
<path d="M6.75393 66.4474C4.8646 70.5715 6.27102 78.9677 7.73385 82.9086C9.19667 86.8494 10.7194 86.3418 14.8435 88.2311C16.7364 84.107 18.2203 83.5007 16.7575 79.5564C15.2947 75.6121 10.878 68.3402 6.75393 66.4474Z" fill="#747474"/>
<path d="M34.4065 68.6717C34.3642 73.2083 29.5281 80.2122 26.5284 83.159C23.5287 86.1058 22.3655 84.999 17.829 84.9567C17.8713 80.4201 16.7716 79.2393 19.7818 76.2925C22.792 73.3457 29.8665 68.633 34.4065 68.6717Z" fill="#747474"/>
<path d="M0.458531 93.853C-0.531959 98.2838 2.57346 106.19 4.83995 109.754C7.10644 113.317 8.45999 112.489 12.9013 113.48C13.8953 109.052 15.2207 108.15 12.9683 104.597C10.7159 101.044 4.88577 94.847 0.458531 93.853Z" fill="#747474"/>
<path d="M27.9666 90.2791C28.8725 94.7274 25.5979 102.574 23.2644 106.099C20.931 109.624 19.588 108.753 15.1572 109.659C14.2513 105.21 12.9436 104.283 15.263 100.776C17.5823 97.2689 23.5218 91.1849 27.9666 90.2791Z" fill="#747474"/>
<path d="M0.000385593 121.961C-0.0489626 126.497 4.64969 133.593 7.58944 136.599C10.5292 139.606 11.7135 138.521 16.2501 138.57C16.2994 134.033 17.4097 132.874 14.47 129.871C11.5302 126.867 4.5369 122.021 0.000385593 121.961Z" fill="#747474"/>
<path d="M26.1654 112.757C27.9736 116.917 26.4015 125.281 24.8612 129.194C23.3208 133.106 21.8086 132.567 17.6458 134.375C15.8375 130.216 14.3641 129.578 15.9045 125.665C17.4448 121.753 22.0025 114.559 26.1654 112.757Z" fill="#747474"/>
<path d="M5.39697 149.567C6.29229 154.016 12.3621 159.98 15.8658 162.31C19.3696 164.64 20.2966 163.332 24.745 162.437C23.8532 157.988 24.6957 156.624 21.1955 154.294C17.6953 151.964 9.84536 148.675 5.39697 149.567Z" fill="#747474"/>
<path d="M29.0735 135.116C31.7101 138.81 31.8934 147.319 31.2166 151.464C30.5398 155.609 28.9325 155.398 25.2243 158.034C22.5877 154.34 21.0156 154.023 21.6994 149.874C22.3833 145.726 25.3794 137.749 29.0735 135.116Z" fill="#747474"/>
<path d="M16.4155 175.44C18.2132 179.607 25.3934 184.178 29.3025 185.729C33.2115 187.28 33.8496 185.807 38.016 184.006C36.2147 179.839 36.7576 178.331 32.8485 176.78C28.9394 175.229 20.5784 173.642 16.4155 175.44Z" fill="#747474"/>
<path d="M36.5671 156.381C39.9122 159.448 41.8791 167.728 42.0624 171.929C42.2457 176.131 40.6524 176.251 37.5787 179.596C34.2336 176.529 32.6439 176.547 32.4465 172.349C32.2491 168.151 33.4863 159.726 36.5671 156.381Z" fill="#747474"/>
<path d="M32.5703 198.45C35.1963 202.152 43.1696 205.148 47.3149 205.853C51.4601 206.558 51.7809 204.982 55.4785 202.356C52.8524 198.655 53.071 197.069 48.9222 196.364C44.7734 195.659 36.2679 195.831 32.5703 198.45Z" fill="#747474"/>
<path d="M48.3194 175.623C52.2285 177.925 55.8732 185.616 56.9271 189.688C57.981 193.759 56.4407 194.21 54.1354 198.123C50.2263 195.817 48.6613 196.17 47.6073 192.099C46.5534 188.027 46.0176 179.532 48.3194 175.623Z" fill="#747474"/>
<path d="M53.1553 217.611C56.4933 220.685 64.9107 221.944 69.1124 221.767C73.314 221.591 73.2999 220.005 76.3736 216.649C73.0356 213.579 72.9157 211.975 68.7141 212.151C64.5124 212.328 56.229 214.273 53.1553 217.611Z" fill="#747474"/>
<path d="M63.8003 192.003C68.1042 193.442 73.2681 200.206 75.1433 203.97C77.0186 207.735 75.6086 208.496 74.1669 212.8C69.8666 211.358 68.4073 212.028 66.5285 208.264C64.6498 204.499 62.3903 196.304 63.8003 192.003Z" fill="#747474"/>
<path d="M77.2764 232.067C81.1819 234.379 89.6769 233.858 93.7481 232.814C97.8193 231.771 97.4739 230.206 99.7862 226.3C95.8806 223.988 95.433 222.448 91.3618 223.481C87.2905 224.513 79.5887 228.165 77.2764 232.067Z" fill="#747474"/>
<path d="M82.3767 204.795C86.885 205.31 93.3426 210.851 95.9615 214.143C98.5805 217.435 97.3715 218.472 96.8428 222.98C92.3344 222.469 91.0479 223.424 88.4289 220.135C85.8099 216.847 81.8656 209.311 82.3767 204.795Z" fill="#747474"/>
<path d="M199.452 3.84558C202.596 5.49052 205.666 7.27293 208.662 9.19281C211.655 11.1103 214.552 13.1689 217.365 15.3402C217.718 15.6081 218.07 15.8865 218.423 16.165L219.48 16.9934L220.509 17.8429C220.862 18.1248 221.214 18.4068 221.532 18.6994L222.543 19.5665C222.896 19.852 223.209 20.1552 223.544 20.4477C223.879 20.7403 224.21 21.0364 224.538 21.336L225.522 22.2384C228.134 24.6494 230.626 27.1943 233.012 29.8309C242.582 40.435 250.197 52.6522 255.501 65.9151L255.991 67.1594C256.156 67.5753 256.308 67.9912 256.463 68.4107C256.618 68.8301 256.784 69.2426 256.928 69.6655L257.376 70.9239C257.528 71.3434 257.669 71.7664 257.81 72.1894L258.233 73.4583L258.634 74.7343C258.765 75.1608 258.906 75.5838 259.029 76.0138C260.047 79.433 260.918 82.892 261.645 86.3911C263.072 93.3958 263.874 100.513 264.042 107.66C264.123 111.231 264.042 114.809 263.823 118.379C263.604 121.95 263.206 125.485 262.663 129.01C260.505 143.217 255.817 156.921 248.821 169.472C245.322 175.742 241.275 181.689 236.727 187.245C234.45 190.015 232.056 192.693 229.544 195.278C227.03 197.844 224.411 200.308 221.676 202.638C218.941 204.968 216.11 207.188 213.185 209.279L212.638 209.67L212.081 210.054L210.975 210.787L210.696 210.981L210.414 211.165L209.854 211.538L208.729 212.282C207.968 212.761 207.214 213.251 206.449 213.724L205.296 214.429L204.718 214.781L204.136 215.134C197.928 218.785 191.405 221.874 184.647 224.365C181.266 225.608 177.835 226.703 174.355 227.65C173.921 227.774 173.484 227.883 173.047 228.003L171.739 228.355C170.865 228.57 169.977 228.768 169.106 228.976L166.575 229.589L166.258 229.663L165.944 229.751L165.32 229.927L164.066 230.28C160.734 231.251 157.466 232.428 154.28 233.805L153.093 234.33L152.497 234.594L151.912 234.876L150.742 235.444L150.156 235.729L149.864 235.87L149.578 236.022L147.28 237.224L145.028 238.525C139.077 242.084 133.595 246.376 128.711 251.299C128.315 251.692 127.78 251.914 127.221 251.914C126.663 251.914 126.127 251.694 125.731 251.301C125.334 250.907 125.109 250.373 125.105 249.815C125.101 249.257 125.317 248.719 125.708 248.32H125.729C130.918 243.211 136.728 238.773 143.022 235.109L145.398 233.777L147.823 232.529L148.123 232.374L148.433 232.229L149.05 231.94L150.28 231.359L150.897 231.07L151.524 230.802L152.775 230.266C156.124 228.863 159.557 227.67 163.054 226.695L164.369 226.343L165.024 226.166L165.356 226.078L165.687 226.004L168.338 225.394C169.191 225.204 170.047 225.042 170.897 224.827L172.173 224.517C172.596 224.415 173.022 224.316 173.445 224.2C176.829 223.328 180.173 222.307 183.477 221.136C190.081 218.794 196.463 215.868 202.547 212.391L203.118 212.067L203.685 211.714L204.817 211.048C205.567 210.597 206.308 210.128 207.055 209.67L208.158 208.965L208.712 208.613L208.987 208.436L209.261 208.253L210.351 207.52L210.897 207.167L211.436 206.79C214.313 204.788 217.101 202.663 219.801 200.414C222.501 198.165 225.086 195.801 227.556 193.322C230.039 190.845 232.414 188.26 234.679 185.567C248.351 169.32 257.389 149.687 260.841 128.735C261.419 125.26 261.843 121.762 262.113 118.242C262.388 114.717 262.494 111.192 262.466 107.667C262.388 100.605 261.68 93.5638 260.351 86.6272C259.681 83.1611 258.859 79.7279 257.884 76.3276C257.767 75.901 257.633 75.4816 257.51 75.0551L257.126 73.7896L256.724 72.5277C256.59 72.1048 256.456 71.6853 256.311 71.2658L255.881 70.0145C255.744 69.595 255.585 69.1826 255.437 68.7632C255.289 68.3437 255.141 67.9313 254.986 67.5189L254.514 66.2817C249.398 53.0484 241.978 40.8266 232.596 30.1834C230.249 27.5257 227.799 24.9631 225.226 22.5274L224.256 21.6145C223.936 21.3113 223.604 21.0152 223.276 20.7156C222.949 20.416 222.624 20.1164 222.289 19.8274L221.292 18.9497C220.961 18.6536 220.622 18.3681 220.284 18.0825L219.269 17.2225L218.239 16.3836C217.887 16.1016 217.552 15.8196 217.203 15.5482C214.421 13.3463 211.55 11.2643 208.592 9.30208C205.633 7.33991 202.587 5.52107 199.452 3.84558Z" fill="#747474"/>
<path d="M220.404 0C224.358 2.2242 228.158 9.84145 229.286 13.8915C230.414 17.9416 228.888 18.4245 226.65 22.3794C222.695 20.1517 221.137 20.5359 220.005 16.4858C218.874 12.4358 218.19 3.95491 220.404 0Z" fill="#747474"/>
<path d="M199.343 18.0507C202.039 21.699 210.069 24.5189 214.228 25.1428C218.387 25.7667 218.676 24.184 222.335 21.484C219.635 17.8357 219.822 16.2425 215.663 15.6221C211.503 15.0017 202.987 15.3507 199.343 18.0507Z" fill="#747474"/>
<path d="M191.799 1.02932C193.163 5.35786 199.861 10.6311 203.579 12.5662C207.298 14.5014 208.098 13.1055 212.423 11.7344C211.056 7.40934 211.747 5.96062 208.014 4.02546C204.281 2.09031 196.124 -0.352431 191.799 1.02932Z" fill="#747474"/>
<path d="M241.606 18.4738C245.011 21.4699 247.14 29.7111 247.408 33.9092C247.675 38.1073 246.075 38.2589 243.075 41.6639C239.67 38.6642 238.067 38.7136 237.788 34.5155C237.51 30.3173 238.606 21.8788 241.606 18.4738Z" fill="#747474"/>
<path d="M217.249 31.7485C219.131 35.8797 226.414 40.3069 230.34 41.7803C234.267 43.2537 234.887 41.7803 239.015 39.8875C237.136 35.7563 237.647 34.2477 233.71 32.7637C229.773 31.2797 221.38 29.8662 217.249 31.7485Z" fill="#747474"/>
<path d="M258.504 40.9482C261.211 44.5894 261.581 53.095 260.971 57.2543C260.361 61.4137 258.765 61.2304 255.124 63.9516C252.416 60.3104 250.837 60.0249 251.451 55.8655C252.064 51.7062 254.849 43.6553 258.504 40.9482Z" fill="#747474"/>
<path d="M231.937 48.8725C232.92 53.3033 239.107 59.1475 242.653 61.407C246.199 63.6664 247.108 62.341 251.535 61.3576C250.555 56.9268 251.373 55.5451 247.827 53.2856C244.281 51.0262 236.35 47.8891 231.937 48.8725Z" fill="#747474"/>
<path d="M270.358 66.4474C272.251 70.5715 270.844 78.9677 269.382 82.9086C267.919 86.8494 266.393 86.3418 262.268 88.2311C260.379 84.107 258.892 83.5007 260.358 79.5564C261.824 75.6121 266.234 68.3402 270.358 66.4474Z" fill="#747474"/>
<path d="M242.709 68.6717C242.748 73.2083 247.587 80.2122 250.587 83.159C253.587 86.1058 254.746 84.999 259.283 84.9567C259.244 80.4201 260.34 79.2393 257.33 76.2925C254.32 73.3457 247.245 68.633 242.709 68.6717Z" fill="#747474"/>
<path d="M276.653 93.853C277.647 98.2838 274.539 106.19 272.276 109.754C270.013 113.317 268.638 112.489 264.211 113.48C263.22 109.052 261.895 108.15 264.144 104.597C266.393 101.044 272.226 94.847 276.653 93.853Z" fill="#747474"/>
<path d="M249.145 90.2791C248.243 94.7274 251.518 102.581 253.837 106.088C256.156 109.595 257.528 108.753 261.972 109.659C262.878 105.21 264.186 104.283 261.863 100.776C259.54 97.2689 253.59 91.1849 249.145 90.2791Z" fill="#747474"/>
<path d="M277.112 121.961C277.161 126.497 272.466 133.593 269.523 136.599C266.579 139.606 265.398 138.521 260.862 138.57C260.813 134.033 259.702 132.874 262.642 129.871C265.582 126.867 272.575 122.021 277.112 121.961Z" fill="#747474"/>
<path d="M250.95 112.757C249.138 116.917 250.711 125.281 252.254 129.194C253.798 133.106 255.307 132.567 259.466 134.375C261.275 130.216 262.748 129.578 261.208 125.665C259.667 121.753 255.11 114.559 250.95 112.757Z" fill="#747474"/>
<path d="M271.715 149.567C270.823 154.016 264.75 159.98 261.25 162.31C257.75 164.64 256.816 163.332 252.367 162.437C253.263 157.988 252.417 156.624 255.92 154.294C259.424 151.964 267.267 148.675 271.715 149.567Z" fill="#747474"/>
<path d="M248.039 135.116C245.406 138.81 245.219 147.319 245.899 151.464C246.579 155.609 248.183 155.398 251.891 158.034C254.525 154.34 256.1 154.023 255.416 149.874C254.732 145.726 251.733 137.749 248.039 135.116Z" fill="#747474"/>
<path d="M260.7 175.44C258.899 179.607 251.722 184.178 247.813 185.729C243.904 187.28 243.262 185.807 239.099 184.006C240.897 179.839 240.354 178.331 244.263 176.78C248.172 175.229 256.533 173.642 260.7 175.44Z" fill="#747474"/>
<path d="M240.545 156.381C237.2 159.448 235.233 167.728 235.049 171.929C234.866 176.131 236.459 176.251 239.533 179.596C242.878 176.529 244.485 176.547 244.669 172.349C244.852 168.151 243.611 159.726 240.545 156.381Z" fill="#747474"/>
<path d="M244.545 198.45C241.919 202.152 233.946 205.148 229.801 205.853C225.656 206.558 225.335 204.982 221.634 202.356C224.26 198.655 224.045 197.069 228.19 196.364C232.335 195.659 240.844 195.831 244.545 198.45Z" fill="#747474"/>
<path d="M228.793 175.623C224.884 177.925 221.239 185.616 220.189 189.688C219.138 193.759 220.675 194.21 222.977 198.123C226.886 195.817 228.454 196.17 229.505 192.099C230.555 188.027 231.098 179.532 228.793 175.623Z" fill="#747474"/>
<path d="M223.957 217.611C220.619 220.685 212.201 221.944 208 221.767C203.798 221.591 203.812 220.005 200.738 216.649C204.08 213.579 204.196 211.975 208.398 212.151C212.599 212.328 220.883 214.273 223.957 217.611Z" fill="#747474"/>
<path d="M213.297 192.003C208.997 193.442 203.83 200.206 201.954 203.97C200.079 207.735 201.493 208.496 202.931 212.8C207.235 211.358 208.694 212.028 210.569 208.264C212.444 204.499 214.739 196.304 213.297 192.003Z" fill="#747474"/>
<path d="M199.836 232.067C195.934 234.379 187.439 233.858 183.364 232.814C179.29 231.771 179.638 230.206 177.326 226.3C181.232 223.988 181.679 222.448 185.754 223.481C189.829 224.513 197.527 228.165 199.836 232.067Z" fill="#747474"/>
<path d="M194.735 204.795C190.227 205.31 183.769 210.851 181.15 214.143C178.531 217.435 179.758 218.472 180.273 222.98C184.781 222.469 186.068 223.424 188.687 220.135C191.306 216.847 195.25 209.311 194.735 204.795Z" fill="#747474"/>
</svg>
